<svg width="27" height="26" viewBox="0 0 27 26" fill="none" xmlns="http://www.w3.org/2000/svg">
<g clip-path="url(#clip0_529_85)">
<path d="M22.36 3.64856H3.01723C1.62922 3.64856 0.5 4.77778 0.5 6.16584V6.50729C0.5 7.89529 1.62922 9.02452 3.01723 9.02452H22.3601C22.5711 9.02452 22.742 8.85359 22.742 8.64264V4.03043C22.7419 3.81949 22.571 3.64856 22.36 3.64856Z" fill="#7C3D1E"/>
<path d="M0.604254 5.4502C0.536766 5.67719 0.5 5.91718 0.5 6.16586V6.50731C0.5 7.89531 1.62922 9.02454 3.01723 9.02454H22.3601C22.5711 9.02454 22.742 8.85361 22.742 8.64266V7.25039H3.01723C1.87617 7.25034 0.913055 6.49096 0.604254 5.4502Z" fill="#68321A"/>
<path d="M12.6714 2.47428L11.2206 1.02356C11.0715 0.87447 10.8297 0.87447 10.6805 1.02356L3.33157 8.37252C3.22234 8.4818 3.18969 8.64598 3.24885 8.78873C3.30791 8.93147 3.44725 9.0245 3.60168 9.0245H6.50316C6.60442 9.0245 6.70157 8.98429 6.77322 8.91268L12.6715 3.01444C12.7431 2.94279 12.7833 2.8457 12.7833 2.74439C12.7833 2.64308 12.743 2.54599 12.6714 2.47428Z" fill="#78AA17"/>
<path d="M4.43632 7.26776L3.33157 8.37251C3.22234 8.48179 3.18969 8.64596 3.24885 8.78871C3.30791 8.93146 3.44725 9.02449 3.60168 9.02449H6.50316C6.60442 9.02449 6.70157 8.98427 6.77322 8.91267L8.41807 7.26781L4.43632 7.26776Z" fill="#6D8915"/>
<path d="M21.4709 8.37252L14.122 1.02356C13.9728 0.87447 13.731 0.87447 13.5818 1.02356L6.23294 8.37252C6.12371 8.4818 6.09105 8.64598 6.15022 8.78873C6.20927 8.93147 6.34862 9.0245 6.50304 9.0245H21.201C21.3554 9.0245 21.4947 8.93147 21.5538 8.78873C21.6128 8.64598 21.5801 8.48175 21.4709 8.37252Z" fill="#8ACC19"/>
<path d="M6.23294 8.37251C6.12371 8.48179 6.09105 8.64596 6.15022 8.78871C6.20927 8.93146 6.34862 9.02449 6.50304 9.02449H21.201C21.3554 9.02449 21.4947 8.93146 21.5538 8.78871C21.6129 8.64596 21.5803 8.48179 21.4711 8.37251L20.3663 7.26776H7.33768L6.23294 8.37251Z" fill="#78A017"/>
<path d="M19.299 8.37253L15.2189 4.29236C15.1473 4.22076 15.0501 4.18054 14.9489 4.18054C14.8476 4.18054 14.7505 4.22076 14.6788 4.29236C14.4594 4.51184 14.1677 4.6327 13.8573 4.6327C13.547 4.6327 13.2553 4.51189 13.0358 4.29241C12.9642 4.22076 12.8671 4.18054 12.7658 4.18054C12.6645 4.18054 12.5674 4.22076 12.4957 4.29236L8.41556 8.37253C8.30632 8.48182 8.27367 8.64599 8.33283 8.78874C8.39189 8.93148 8.53124 9.02451 8.68566 9.02451H19.029C19.1835 9.02451 19.3228 8.93148 19.3819 8.78874C19.4409 8.64599 19.4082 8.48176 19.299 8.37253Z" fill="#78A017"/>
<path d="M8.41653 8.37251C8.3073 8.48179 8.27465 8.64596 8.33381 8.78871C8.39287 8.93146 8.53221 9.02449 8.68664 9.02449H19.03C19.1844 9.02449 19.3238 8.93146 19.3828 8.78871C19.442 8.64596 19.4093 8.48179 19.3001 8.37251L18.1954 7.26776H9.52123L8.41653 8.37251Z" fill="#6D8915"/>
<path d="M24.733 8.26069H6.5645H3.18795H2.56517C1.4685 8.26069 0.5715 7.40761 0.500406 6.32892C0.500355 6.33146 0.5 6.334 0.5 6.33669V6.33674V22.4004C0.5 23.8825 1.7058 25.0883 3.18795 25.0883H24.7331C24.944 25.0883 25.1149 24.9174 25.1149 24.7065V8.64256C25.1149 8.43167 24.944 8.26069 24.733 8.26069Z" fill="#AA5D24"/>
<path d="M25.1146 14.8203H21.0041C19.4688 14.8203 18.2197 16.0693 18.2197 17.6047C18.2197 19.14 19.4687 20.3891 21.0041 20.3891H25.1146V14.8203Z" fill="#7C3D1E"/>
<path d="M25.354 13.8395H21.0041C19.4688 13.8395 18.2197 15.0885 18.2197 16.6239C18.2197 18.1591 19.4687 19.4083 21.0041 19.4083H25.354C25.9858 19.4083 26.4997 18.8943 26.4997 18.2626V14.9852C26.4997 14.3534 25.9858 13.8395 25.354 13.8395Z" fill="#F99608"/>
<path d="M21.3277 15.378C20.6409 15.378 20.082 15.9369 20.082 16.6238C20.082 17.3106 20.6409 17.8695 21.3277 17.8695C22.0146 17.8695 22.5735 17.3106 22.5735 16.6238C22.5735 15.9369 22.0146 15.378 21.3277 15.378Z" fill="#FFD039"/>
</g>
<defs>
<clipPath id="clip0_529_85">
<rect width="26" height="26" fill="white" transform="translate(0.5)"/>
</clipPath>
</defs>
</svg>
