<svg width="7" height="9" viewBox="0 0 7 9" fill="none" xmlns="http://www.w3.org/2000/svg">
<path d="M6.79175 4.38207C5.88558 4.17628 5.06934 3.6644 4.48828 2.93981C3.90723 2.21522 3.59076 1.30386 3.59076 0.375214V0.266266H3.52159V0.375214C3.52159 1.30386 3.20166 2.21522 2.62233 2.93981C2.04301 3.6644 1.22504 4.17801 0.318868 4.38207L0.171875 4.41666L0.318868 4.44951C1.22504 4.6553 2.04301 5.16719 2.62233 5.8935C3.20166 6.61982 3.52159 7.52945 3.52159 8.4581V8.56705H3.59076V8.4581C3.59076 7.52945 3.91069 6.61809 4.49001 5.8935C5.06934 5.16719 5.88731 4.6553 6.79348 4.44951L6.9422 4.41493L6.79175 4.38207Z" fill="white"/>
</svg>
