<svg width="25" height="24" viewBox="0 0 25 24" fill="none" xmlns="http://www.w3.org/2000/svg">
<g clip-path="url(#clip0_529_35)">
<path d="M6.125 12.0001C6.125 10.811 6.45261 9.69709 7.02177 8.74332V4.69763H2.97608C1.37038 6.78301 0.5 9.32452 0.5 12.0001C0.5 14.6756 1.37038 17.2171 2.97608 19.3025H7.02177V15.2568C6.45261 14.303 6.125 13.1891 6.125 12.0001Z" fill="#FBBD00"/>
<path d="M12.5 18.375L9.6875 21.1875L12.5 24C15.1756 24 17.717 23.1296 19.8024 21.5239V17.4825H15.761C14.7989 18.0538 13.6804 18.375 12.5 18.375Z" fill="#0F9D58"/>
<path d="M7.02225 15.2567L2.97656 19.3024C3.29447 19.7153 3.64064 20.1107 4.01522 20.4853C6.28172 22.7517 9.29517 24 12.5005 24V18.375C10.1744 18.375 8.13562 17.1225 7.02225 15.2567Z" fill="#31AA52"/>
<path d="M24.5 11.9999C24.5 11.2699 24.4339 10.5384 24.3035 9.82603L24.198 9.24951H12.5V14.8745H18.1931C17.6402 15.9742 16.7902 16.8715 15.761 17.4825L19.8024 21.5239C20.2153 21.206 20.6106 20.8598 20.9853 20.4853C23.2518 18.2187 24.5 15.2053 24.5 11.9999Z" fill="#3C79E6"/>
<path d="M17.0078 7.49217L17.505 7.98933L21.4825 4.01189L20.9853 3.51473C18.7188 1.24823 15.7054 0 12.5 0L9.6875 2.8125L12.5 5.625C14.2028 5.625 15.8037 6.28809 17.0078 7.49217Z" fill="#CF2D48"/>
<path d="M12.4996 5.625V0C9.29424 0 6.28079 1.24823 4.01424 3.51469C3.63966 3.88927 3.29349 4.28466 2.97559 4.69758L7.02127 8.74327C8.1347 6.8775 10.1734 5.625 12.4996 5.625Z" fill="#EB4132"/>
</g>
<defs>
<clipPath id="clip0_529_35">
<rect width="24" height="24" fill="white" transform="translate(0.5)"/>
</clipPath>
</defs>
</svg>
