<svg width="26" height="26" viewBox="0 0 26 26" fill="none" xmlns="http://www.w3.org/2000/svg">
<g clip-path="url(#clip0_529_57)">
<path fill-rule="evenodd" clip-rule="evenodd" d="M13 25.5C19.8849 25.5 25.5 19.8846 25.5 13C25.5 6.11514 19.8849 0.5 13 0.5C6.11514 0.5 0.5 6.11537 0.5 13C0.5 19.8846 6.11537 25.5 13 25.5Z" fill="#FF757C"/>
<path fill-rule="evenodd" clip-rule="evenodd" d="M13.0004 6.7326C19.1106 6.7326 24.0634 11.6856 24.0634 17.7956C24.0634 18.1792 24.0438 18.5581 24.0059 18.9315C21.8934 22.8426 17.7575 25.5 13.0004 25.5C8.24343 25.5 4.10774 22.8428 1.99523 18.9318C1.95712 18.5583 1.9375 18.1792 1.9375 17.7956C1.9375 11.6854 6.89073 6.7326 13.0004 6.7326Z" fill="#0E7886"/>
<path fill-rule="evenodd" clip-rule="evenodd" d="M19.9123 9.15789C21.9695 10.8063 23.4253 13.1736 23.8977 15.8797C23.8644 15.8285 23.8303 15.7613 23.796 15.6616C23.58 15.7324 23.573 15.7383 23.3179 15.7807L23.3066 15.7962C23.2052 15.9408 23.3118 15.8797 23.1334 16.0303C22.9212 16.209 22.783 16.4527 22.5457 16.5973C22.5171 16.8499 22.5667 16.9067 22.5031 17.2071C22.4783 17.3179 22.3542 17.6156 22.209 17.593C22.163 17.5844 21.9681 17.1023 21.9221 16.969C21.8441 16.7421 21.7557 16.5748 21.6991 16.3138C21.6673 16.1747 21.6459 15.9081 21.6141 15.8145C21.4618 15.8371 21.4686 15.9338 21.3234 15.8316C21.2208 15.7577 21.267 15.7126 21.2099 15.6018C21.0897 15.4884 20.9657 15.375 20.8419 15.2615C20.746 15.2304 20.3777 15.2841 20.2217 15.2672C19.942 15.2414 19.9174 15.2586 19.751 15.0346C19.4567 15.0491 19.4817 15.1594 19.1946 14.9126C19.007 14.7539 19.0424 14.4986 18.7697 14.6431C18.7594 14.8756 18.8726 14.9271 18.9752 15.0346C19.0494 15.117 19.1416 15.1736 19.1804 15.2841C19.184 15.2872 19.2018 15.3919 19.2055 15.4061C19.4711 15.4232 19.5347 15.2958 19.68 15.188C19.8218 15.3211 19.6836 15.3441 19.889 15.4487C20.0519 15.5312 20.0201 15.483 20.1261 15.616C20.1793 15.7947 19.7616 16.2798 19.6231 16.3677C19.5169 16.4358 19.4605 16.3961 19.3647 16.4751C19.223 16.5946 19.3825 16.5775 19.1346 16.6681C18.869 16.7646 18.6067 16.9688 18.327 16.9859C18.2668 16.821 18.2066 16.6541 18.1464 16.4868C17.9691 15.9167 17.9763 16.1379 17.7955 15.8429C17.7104 15.7151 17.7459 15.633 17.6892 15.5195C17.65 15.4345 17.5902 15.3975 17.5368 15.2929C17.4554 15.1312 17.36 14.8788 17.1721 14.9043C17.1331 15.0317 17.3455 15.4629 17.3985 15.5678C17.4518 15.6729 17.5368 15.7182 17.5616 15.8686C17.597 16.0754 17.5546 16.0497 17.6678 16.1887C17.9053 16.4748 17.6572 16.4241 18.0257 16.7047C18.3018 16.9149 18.2312 16.9771 18.348 17.2581C18.5287 17.3088 19.067 17.0682 19.1588 17.139C19.2686 17.3346 19.0316 17.6465 18.9714 17.8167C18.7729 18.3869 18.4258 18.3785 18.1601 18.8151C18.0151 19.0508 17.9477 19.0819 17.8131 19.3656C17.6606 19.6861 18.1211 20.5738 17.8451 20.9457C17.7849 21.0305 17.59 21.0817 17.3458 21.3399C17.0871 21.6204 17.3528 21.5724 17.2535 22.0402C17.1757 22.148 17.0801 22.1536 16.9845 22.2305C16.9491 22.3408 16.9775 22.4285 16.917 22.565C16.8532 22.7294 16.8428 22.6414 16.7504 22.7749C16.6832 22.8796 16.6904 22.9222 16.6124 23.0187C16.5452 23.1069 16.5095 23.1319 16.4461 23.189C16.1379 23.4727 15.4755 23.481 15.4189 23.4413C15.2628 23.3083 15.3693 23.2742 15.3305 23.087C15.2926 22.9224 15.2053 22.7846 15.1325 22.6576L15.125 22.6446C15.0898 22.5823 15.0578 22.5226 15.04 22.4657C14.9123 22.0629 14.9586 21.7571 14.7355 21.3485C14.4557 20.8207 14.8911 20.5458 14.8733 20.2479C14.8663 20.1685 14.8381 20.1202 14.8307 20.0578C14.7777 19.7287 14.7461 19.434 14.5265 19.1757C14.2854 18.8952 14.3174 18.9942 14.3952 18.5321C14.4942 18.0017 14.2678 18.1377 13.9489 18.1237C13.7928 17.6417 13.4881 17.8767 13.1837 18.0188C12.9922 18.1065 12.9216 17.9933 12.7053 18.0244C12.2236 18.0896 12.6027 18.2969 11.958 17.7863C11.6887 17.5734 11.8693 17.6812 11.7101 17.4146C11.6571 17.3181 11.494 17.1907 11.4194 17.0939C11.1752 16.7877 11.4656 16.4785 11.423 16.1269C11.3486 15.4744 11.2424 16.0416 11.6073 15.2532C11.7987 14.8335 12.089 14.8308 12.1636 14.6434C12.2275 14.4762 12.1848 14.3569 12.3053 14.2038C12.4115 14.0791 12.5639 14.1046 12.6242 13.9088C12.7092 13.6677 12.5461 13.6368 12.3691 13.6307C12.2949 13.3784 12.2949 13.4406 12.3513 13.2081C12.3833 13.0775 12.3549 13.0151 12.3833 12.8847C12.4541 12.5586 13.0103 12.882 13.1697 12.7485C13.2439 12.6096 13.2547 12.4736 13.1697 12.3401C13.0808 12.2068 12.9643 12.2237 12.904 12.0963C13.0387 12.0056 12.9394 12.085 13.0563 12.0593C13.1943 12.0282 13.1765 11.9882 13.3395 11.9573C13.485 11.9287 13.5772 11.7956 13.7186 11.705C13.9205 11.5744 13.8249 11.4578 14.0693 11.4186C14.4624 11.3502 14.2073 11.3617 14.2502 10.9957C14.3102 10.9731 14.3668 10.9472 14.4234 10.9219C14.5474 11.0837 14.3916 11.0185 14.5402 11.126C14.5792 11.1035 14.6252 11.0809 14.6679 11.0584C14.6464 10.8823 14.5653 10.9163 14.512 10.6982C14.3172 10.7293 14.2464 10.8938 14.0905 10.8342C13.9383 10.7776 13.9311 10.5591 13.9383 10.3775C13.9949 10.2415 14.2782 10.1678 14.3878 10.1335C14.5653 10.074 14.5402 9.95489 14.7031 9.79297C14.9157 9.5803 14.7597 9.7959 14.8625 9.52098C15.0964 9.51219 14.9865 9.50384 15.1246 9.43303L15.1316 9.43032L15.1458 9.42446C15.2274 9.38747 15.3336 9.37913 15.4398 9.34237C15.8293 9.21201 15.9888 9.27719 16.272 9.39311C16.4917 9.484 17.1541 9.4867 17.2037 9.765C17.0445 9.93189 16.8922 9.81011 16.6617 9.82454C16.7041 10.0399 16.7217 10.0399 16.9168 10.0995C16.9488 9.99729 16.9026 10.0372 16.9558 9.97181C17.0197 9.98602 17.0835 9.99729 17.1471 10.009C17.2111 9.79049 17.2853 9.82183 17.5016 9.79612C17.466 9.6457 17.427 9.68832 17.5084 9.56924C17.7319 9.59225 17.551 9.5724 17.6608 9.75102C17.8167 9.73095 17.9691 9.55797 18.1849 9.53542C18.3196 9.52121 18.3126 9.5724 18.5036 9.55233C18.6595 9.53542 18.6522 9.47858 18.8085 9.54399C18.8649 9.43889 18.8085 9.4416 18.9466 9.41634C19.1588 9.37935 19.3433 9.50971 19.5485 9.53835C19.3965 9.35139 19.251 9.38792 19.4389 9.07602C19.6761 9.02776 19.6973 9.06181 19.8002 9.24065C19.8584 9.20795 19.8832 9.17503 19.912 9.15834L19.9123 9.15789ZM7.99839 24.458C7.62989 24.297 7.27085 24.1186 6.92196 23.9242C6.91767 23.9098 6.91384 23.894 6.91046 23.8757C6.85746 23.5606 6.9921 23.5266 6.84303 23.0018C6.74537 22.6547 6.78461 21.8324 6.68132 21.4109C6.66486 21.3437 6.64456 21.2867 6.61998 21.2431C6.52436 21.0846 6.29049 21.0109 6.10307 20.883C6.09225 20.8805 6.08526 20.8773 6.08188 20.8717C5.8232 20.6902 5.57873 19.9782 5.37327 19.7118C5.27788 19.5839 5.21766 19.6406 5.17504 19.4394C5.12903 19.2551 5.19984 19.2865 5.26028 19.1329C4.945 18.5544 5.66758 18.5628 5.51896 17.8679C5.48694 17.7403 5.39515 17.5617 5.31712 17.5053C5.16827 17.5705 5.23886 17.607 5.16105 17.7319C5.04085 17.6638 4.92042 17.5955 4.80359 17.5278C4.43869 17.176 4.63332 17.4311 4.53093 17.2015C4.31127 16.7193 4.10198 16.989 3.83992 16.7507C3.72287 16.6512 3.70167 16.4951 3.50705 16.5238C3.21296 16.5635 3.37579 16.6088 3.07133 16.4667C2.81265 16.3447 2.5436 16.2031 2.36273 16.0385C2.35574 15.7832 2.44798 15.7717 2.28853 15.5337C2.26034 15.4895 2.22854 15.4485 2.19629 15.4092C2.6947 13.1416 3.88818 11.1348 5.54264 9.62382C5.67119 9.6687 5.84124 9.63916 5.96889 9.63397C6.01467 9.54895 6.04308 9.47497 6.12473 9.44385C6.15652 9.43258 6.19554 9.42987 6.24854 9.43258C6.25553 9.47475 6.26636 9.5176 6.27696 9.56C6.27696 9.56316 6.28417 9.59135 6.28056 9.58571C6.28417 9.57984 6.28756 9.60262 6.29094 9.61097C6.51443 9.48061 6.32657 9.47768 6.44678 9.24223C6.25914 9.20525 6.28395 9.2278 6.1669 9.10872C6.28056 8.984 6.49977 8.94138 6.66283 8.95288C6.652 9.06655 6.59901 9.06362 6.64186 9.15991C6.76928 9.08053 6.85791 8.86808 7.06314 8.90755C7.10215 8.93574 7.14839 8.96145 7.19079 8.98694C7.08434 9.08617 6.92512 9.09203 6.7871 9.14864C6.72665 9.76432 6.98195 9.2481 6.8967 9.67073C7.04893 9.65945 7.19778 9.54872 7.25438 9.43528C7.19778 9.36154 7.11614 9.36154 7.07036 9.27358C7.10599 9.16014 7.18222 9.07422 7.29002 9.02302C7.36286 8.98852 7.44992 8.97002 7.5487 8.97002C8.67497 8.97859 8.14003 9.02956 8.48733 9.18856C8.56514 9.22239 8.70316 9.23975 8.7494 9.30763C8.82021 9.41544 8.753 9.51737 8.86622 9.60262C8.96545 9.67637 8.97966 9.59969 9.11069 9.76455C9.0825 9.85792 9.01507 9.95444 8.87704 9.95737C8.6858 9.96008 8.79901 9.8295 8.59356 9.84957C8.59739 10.0422 8.78841 10.1161 8.61115 10.221C8.45531 10.3148 8.55432 10.1872 8.43772 10.2524C8.43411 10.2553 8.42351 10.2609 8.42013 10.2639C8.41314 10.2695 8.40592 10.2781 8.40231 10.2837C8.38134 10.3065 8.3633 10.3263 8.34593 10.3464C8.06267 10.2695 8.11589 10.3038 7.94562 10.1166C7.88202 10.0458 7.87142 10.0286 7.75798 10.0372C7.68717 10.0399 7.59515 10.071 7.52772 10.0088C7.66597 9.83582 7.7334 10.0032 7.93525 9.90077C7.97065 9.88363 8.1937 9.71087 8.22933 9.67096C8.16912 9.53474 8.22212 9.64795 8.13394 9.56022C7.93547 9.35905 7.87842 9.4098 7.60981 9.4098C7.48374 9.55481 7.38947 9.7341 7.25213 9.81281C7.16914 9.8604 7.07058 9.87122 6.94023 9.81552C7.00044 10.0595 7.15628 9.87235 7.17026 10.1671C7.06765 10.1473 7.01443 10.0961 6.9082 10.1331C6.68132 10.2181 6.88339 10.2095 6.90099 10.2551C6.90099 10.258 7.00721 10.2693 6.90099 10.309C6.78394 10.3514 6.88317 10.2862 6.65674 10.1529C6.68854 10.0963 6.72056 10.0368 6.75236 9.97722C6.56833 10.0341 6.33785 10.1247 6.12202 10.2296C5.87732 10.3516 5.64729 10.4907 5.50904 10.6182C5.50543 10.8311 5.54445 10.689 5.56587 10.9418C5.89514 10.9614 5.78892 11.0604 6.11841 11.1542C6.18178 11.1716 6.26365 11.1885 6.36288 11.2054C6.36288 11.3644 6.22102 11.4835 6.32003 11.6481C6.55029 11.8094 6.55728 11.4948 6.61412 11.2936C7.39376 11.1308 7.01803 10.9017 7.21943 10.4727C7.24965 10.4087 7.2925 10.3403 7.35429 10.2666C7.41428 10.2695 7.65875 10.2952 7.71198 10.3063C7.88924 10.3374 7.79362 10.38 7.98486 10.465C7.98125 10.6184 7.90345 10.8169 8.1301 10.7801C8.30376 10.7492 8.26497 10.6128 8.47719 10.5787C8.57258 10.8029 8.548 10.8994 8.5904 11.1687C9.10054 11.3674 8.87366 11.5288 8.77443 11.9007C8.83848 11.9319 8.90546 11.9603 8.97289 11.9885C8.96951 12.0963 8.96568 12.2014 8.96229 12.3065C8.95169 12.3065 8.41652 12.1899 8.38134 12.1788C8.46275 11.9461 8.6116 11.9434 8.70722 11.7052C8.51598 11.739 8.52996 11.7986 8.39194 11.8412C8.26812 11.8782 8.1725 11.8525 8.04147 11.8696C7.99546 12.0225 8.03786 11.7361 8.0523 11.9316C8.05929 12.0056 8.09492 11.9348 8.04508 12.0139C7.86782 11.9316 7.92826 11.7388 7.59876 11.9174C7.67319 11.9515 7.74738 11.9826 7.82542 12.0139C7.81504 12.232 7.79723 12.0676 7.75122 12.2124C7.63778 12.5838 8.05929 12.354 8.16912 12.3344C8.1407 12.5302 8.02027 12.5302 7.85022 12.5838C7.66281 12.6407 7.60598 12.7174 7.45713 12.7514C7.45713 12.5187 7.42195 12.7144 7.52434 12.553C7.37549 12.5669 7.26566 12.635 7.12403 12.6948L7.11005 12.7002C6.92805 12.7744 6.90053 12.7855 6.87956 13.018C6.72372 13.066 6.54308 13.1204 6.43324 13.2338C6.32364 13.3387 6.21358 13.4433 6.10713 13.5455C6.09676 13.5541 6.08932 13.5626 6.08278 13.5683C6.12179 13.8603 6.08278 13.866 5.90529 13.9799C5.75667 14.0759 5.70705 14.0732 5.56903 14.1952C5.12632 14.5924 5.33899 14.4077 5.36335 15.0915C5.27134 15.0633 5.18293 15.0319 5.09791 15.0008C5.03047 14.5468 5.12249 14.6975 4.75781 14.5924C4.3645 14.4789 4.41749 14.6718 4.25466 14.7058C4.07402 14.7453 3.98539 14.5412 3.72333 14.7115C3.57831 14.8105 3.44006 14.8759 3.40466 15.0516C3.36226 15.2645 3.26664 15.4201 3.28062 15.6557C3.30565 16.2942 3.88638 16.3307 4.03523 16.033C4.13423 15.8346 4.10965 15.7268 4.43193 15.7777C4.46373 15.948 4.41411 16.0727 4.37149 16.2033C4.3433 16.2798 4.26526 16.4187 4.30428 16.524C4.53454 16.6176 4.54153 16.4415 4.84622 16.623C4.86764 16.9264 4.7082 17.2667 4.94184 17.4426C5.12226 17.5759 5.13309 17.4568 5.29231 17.4286C5.46957 17.3975 5.43777 17.508 5.60083 17.5337C5.69284 17.42 5.65383 17.4913 5.71427 17.3519C5.82049 17.1113 5.84868 17.2245 6.10037 17.0772C6.12495 17.063 6.14615 17.0486 6.17118 17.0317C6.19937 17.0912 6.2314 17.148 6.25936 17.2047C6.44362 16.9863 6.46482 17.199 6.67749 17.2586C6.76905 17.2836 6.834 17.2926 6.8843 17.2933C7.03878 17.2955 7.05457 17.2204 7.26544 17.2951C7.29047 17.3068 7.32227 17.3152 7.35068 17.3237C7.35407 17.3237 7.36467 17.3294 7.36467 17.3352C7.3685 17.3382 7.37887 17.3465 7.38248 17.3497C7.41789 17.3891 7.42172 17.429 7.44992 17.4714C7.59515 17.6104 7.74039 17.7495 7.88202 17.8855C8.16168 17.9962 8.16168 17.789 8.48057 18.098C8.61521 18.2256 8.55477 18.2231 8.62919 18.3873C8.64002 18.413 8.66122 18.4383 8.6752 18.4696C8.70361 18.5463 8.73541 18.6198 8.76744 18.6936C8.91245 18.8837 9.11091 18.7646 9.31276 18.9604C9.42958 19.0738 9.34118 19.0398 9.59963 19.0851C9.99994 19.1503 9.84432 19.1135 10.1488 19.3433C10.2656 19.4283 10.2938 19.3801 10.4036 19.4538C10.5561 19.6665 10.5171 19.8963 10.3896 20.0835C9.99633 20.6563 10.131 20.5627 10.1132 21.0167C10.0989 21.2774 10.0245 21.8164 9.78005 21.8816C8.89125 22.1315 9.40816 22.3045 9.17451 22.744C9.10731 22.869 9.05746 22.9001 9.01507 22.9995C8.83825 23.4134 8.96207 23.5525 8.43772 23.4589C8.48756 23.5467 8.45554 23.4871 8.50515 23.5665C8.66099 23.8076 8.6858 23.9894 8.3669 24.0485C8.10123 24.0997 8.21467 24.0485 8.18987 24.3434C8.08703 24.3861 8.04102 24.3434 7.97381 24.4116L7.99885 24.4582L7.99839 24.458ZM5.66398 9.51534C5.73254 9.50632 5.73231 9.47655 5.91183 9.43303C5.89762 9.37349 5.8868 9.37349 5.87281 9.35094L5.86717 9.33966C5.79884 9.39739 5.73096 9.45626 5.66398 9.51557V9.51534ZM15.1318 12.8044L15.1248 12.7995C15.1 12.7825 15.0754 12.7656 15.0542 12.7458C14.8984 12.6066 14.8661 12.4821 14.6929 12.5133C14.6891 12.6438 14.7071 12.6493 14.7707 12.7345C15.0116 13.0351 14.9372 12.9332 15.1248 13.0437L15.1318 13.0478C15.1762 13.0732 15.2276 13.1089 15.2982 13.1601C15.0574 13.3723 15.2806 13.3951 15.1318 13.4661L15.1248 13.4695C15.1104 13.4749 15.0966 13.4808 15.086 13.4864C15.0362 13.3615 15.146 13.4212 15.0186 13.2397C14.9478 13.1461 14.8805 13.1177 14.7707 13.0662C14.4942 12.9359 14.5299 12.834 14.3598 12.6637C14.1683 12.6695 14.2112 12.7291 14.0765 12.7972C13.9137 12.8764 13.9385 12.7832 13.7471 12.7999C13.5912 13.0753 13.8143 12.8455 13.531 13.0723C13.1909 13.336 13.4708 13.6111 12.9255 13.6937C12.8864 13.6993 12.8722 13.6937 12.8334 13.7076C12.7304 13.7444 12.7906 13.7133 12.7304 13.7728C12.7766 13.8808 12.7128 13.8635 12.897 13.8892C13.2335 13.9343 13.2762 13.7275 13.5206 13.6763C13.6408 13.6508 14.3954 13.6195 14.4484 13.6337C14.6113 13.8154 14.4769 13.9431 14.4769 14.096C14.6543 14.1896 14.9056 14.2124 15.0084 14.3089C15.1252 14.4194 15.0686 14.4023 15.1252 14.4221L15.1322 14.4244C15.1537 14.4305 15.1846 14.4415 15.2387 14.462C15.3803 14.5101 15.3731 14.5385 15.5253 14.5498C15.6636 14.0874 15.5217 14.1357 16.1877 14.3481C16.8819 14.5755 16.5702 14.3682 16.8643 14.3993C17.0097 14.4138 16.9707 14.4589 17.1726 14.4334C17.2114 14.354 17.4982 13.6334 17.1263 13.7243C17.0165 13.7525 17.0911 13.7922 16.9351 13.7525C16.7723 13.7104 16.9281 13.679 16.7477 13.7043C16.5702 13.73 16.358 13.886 16.2197 13.35C16.1667 13.1569 16.0709 12.9898 15.8514 13.2816C15.908 13.3809 15.9471 13.3894 16.0107 13.486C15.9931 13.5141 15.9328 13.5852 15.9116 13.608C15.7914 13.727 15.9615 13.6704 15.7664 13.6957C15.6602 13.6163 15.6816 13.5141 15.5788 13.3725C15.3981 13.1084 15.5149 13.2307 15.4229 12.9781C15.3505 12.9145 15.2303 12.8669 15.1322 12.8044H15.1318ZM18.9148 20.4405C18.7591 20.5199 18.7377 20.7017 18.6209 20.8036C18.4935 20.92 18.3232 20.8663 18.2738 21.0817C18.21 21.3509 18.38 21.2689 18.1924 21.6204C18.1252 21.7508 18.1216 22.0769 18.2244 22.1737C18.5323 22.4711 18.6989 21.7199 18.7697 21.4845C18.823 21.3171 18.8726 21.1272 18.9292 20.9709C18.9858 20.8036 19.0672 20.6563 18.9148 20.4405ZM18.4048 12.527C18.4296 12.8734 18.6349 13.0065 18.7803 13.1653C18.7627 13.3299 18.7235 13.2873 18.7271 13.5169C18.9008 13.642 19.028 13.7182 19.2551 13.6562C19.2869 13.3782 19.1982 13.3921 19.1134 13.2022C19.1276 13.1795 19.1664 13.1513 19.1734 13.1456C19.2375 13.0606 19.2055 13.1795 19.2375 13.0349C19.071 12.9812 18.8018 12.8107 18.7808 12.587C18.8622 12.5218 18.8374 12.5613 18.8974 12.5218C19.0284 12.4366 18.9294 12.5669 19.0072 12.4224C18.94 12.292 18.8656 12.2692 18.7028 12.3344C18.6319 12.3628 18.4441 12.4961 18.4051 12.5272L18.4048 12.527ZM16.9561 12.6179C16.8465 12.465 16.8532 12.3881 16.6408 12.3825C16.556 12.4733 16.4567 12.6093 16.4107 12.7483C16.3399 12.9582 16.3895 12.8134 16.3965 13.0405C16.3929 13.0489 16.3965 13.0606 16.3965 13.069C16.3929 13.2049 16.3609 13.0432 16.3823 13.1682C16.549 13.1339 16.4216 13.1368 16.5456 13.0971C16.6624 13.0575 17.0201 12.9497 17.1229 12.9754C17.3672 13.032 17.5726 13.225 17.8491 13.032C17.8347 12.7852 17.5372 12.6917 17.3318 12.5836C17.3426 12.357 17.4026 12.5356 17.3884 12.3171C17.3176 12.3141 17.275 12.3028 17.2077 12.3313C17.0483 12.4021 17.1369 12.4221 17.1369 12.4476C17.1439 12.5694 17.2964 12.4221 17.1335 12.5726C17.0875 12.612 17.0129 12.612 16.9563 12.6179H16.9561ZM12.8188 10.8992C12.812 11.2963 12.95 11.1628 13.0808 11.3588C13.0209 11.5261 13.01 11.3958 12.9431 11.5685C12.8828 11.7133 12.957 11.583 12.918 11.8351C13.0209 11.841 13.1731 11.8042 13.3077 11.7927C13.4992 11.7756 13.4954 11.7587 13.5628 11.5629C13.4566 11.4325 13.3504 11.302 13.2405 11.1716C13.102 10.9614 13.2405 11.1062 13.1981 10.9303C13.1663 10.8678 13.1377 10.8058 13.1095 10.7431C12.9252 10.8058 12.9431 10.7887 12.8188 10.8992Z" fill="#15BDB1"/>
<path fill-rule="evenodd" clip-rule="evenodd" d="M19.8195 10.1965L19.7124 10.0894L19.2708 9.64784L19.1637 9.54071C18.8153 9.67287 18.3791 10.2441 18.207 10.6045L18.2605 10.6582L18.7021 11.0998L18.7557 11.1534C19.1161 10.9811 19.6874 10.5452 19.8195 10.1968V10.1965Z" fill="#FBB429"/>
<path fill-rule="evenodd" clip-rule="evenodd" d="M19.8199 10.1965L19.7128 10.0894L19.2712 9.64784L19.1641 9.54071C19.0836 9.57138 18.9988 9.62528 18.9131 9.69452L19.6661 10.4476C19.7354 10.3621 19.7893 10.2771 19.8199 10.1968V10.1965Z" fill="white"/>
<path fill-rule="evenodd" clip-rule="evenodd" d="M20.5588 12.2964L20.4517 12.1893L20.0101 11.7477L19.903 11.6406C19.5545 11.7727 19.1184 12.344 18.9463 12.7044L19 12.758L19.4415 13.1996L19.4952 13.2533C19.8556 13.081 20.4269 12.6451 20.559 12.2964H20.5588Z" fill="#FBB429"/>
<path fill-rule="evenodd" clip-rule="evenodd" d="M20.5592 12.2964L20.4521 12.1895L20.0105 11.7477L19.9034 11.6408C19.8228 11.6713 19.738 11.7252 19.6523 11.7946L20.4054 12.5476C20.4746 12.4622 20.5287 12.3772 20.5592 12.2966V12.2964Z" fill="white"/>
<path fill-rule="evenodd" clip-rule="evenodd" d="M14.5301 4.90723L14.6373 5.01435L15.0789 5.45593L15.186 5.56306C15.0538 5.91149 14.4826 6.34766 14.1222 6.51996L14.0685 6.46629L13.6269 6.02471L13.5732 5.97103C13.7455 5.61087 14.1815 5.03938 14.5299 4.90723H14.5301Z" fill="#FBB429"/>
<path fill-rule="evenodd" clip-rule="evenodd" d="M14.5303 4.90723L14.6374 5.01435L15.079 5.45593L15.1861 5.56306C15.1557 5.64357 15.1018 5.72859 15.0323 5.81407L14.2793 5.06104C14.3648 4.99157 14.4498 4.93767 14.5303 4.90723Z" fill="white"/>
<path fill-rule="evenodd" clip-rule="evenodd" d="M12.4305 4.16801L12.5377 4.27514L12.9792 4.71672L13.0864 4.82384C12.9542 5.17228 12.383 5.60845 12.0226 5.78052L11.9689 5.72685L11.5273 5.28527L11.4736 5.23159C11.6459 4.87143 12.0819 4.29994 12.4303 4.16779L12.4305 4.16801Z" fill="#FBB429"/>
<path fill-rule="evenodd" clip-rule="evenodd" d="M12.4307 4.16797L12.5378 4.27509L12.9796 4.71667L13.0865 4.8238C13.0561 4.90431 13.0022 4.98933 12.9329 5.07481L12.1797 4.32178C12.2652 4.25232 12.3502 4.19841 12.4307 4.16797Z" fill="white"/>
<path fill-rule="evenodd" clip-rule="evenodd" d="M10.8617 14.1231L12.1573 15.9652L12.5705 15.4657L11.8373 13.5287C11.9293 13.4493 11.7564 13.6067 12.1348 13.2662C12.5132 12.9256 14.176 11.397 15.6821 10.1726L20.0196 16.3042L20.4152 15.9086L18.0176 8.26624C18.9975 7.45841 19.7558 6.81408 19.9601 6.58066C20.5846 5.8671 21.1495 4.91538 20.7036 4.02342C19.8115 3.57733 18.86 4.1425 18.1464 4.76675C17.9128 4.97108 17.2687 5.7293 16.4608 6.70921L8.81842 4.31164L8.42285 4.70722L14.5542 9.04476C13.3301 10.551 11.8012 12.2136 11.4609 12.5921C11.1201 12.9705 11.2778 12.7975 11.1984 12.8895L9.26136 12.1563L8.76182 12.5695L10.6039 13.8651C10.4039 14.2093 10.5178 14.3232 10.8619 14.1231H10.8617Z" fill="white"/>
<path fill-rule="evenodd" clip-rule="evenodd" d="M10.8623 14.1231L12.158 15.9652L12.2576 15.8448L11.0017 14.027L10.8625 14.1231H10.8623Z" fill="#C8CACC"/>
<path fill-rule="evenodd" clip-rule="evenodd" d="M8.88215 12.4698L8.76172 12.5695L10.6038 13.8651L10.6999 13.726L8.88192 12.4698H8.88215Z" fill="#C8CACC"/>
<path fill-rule="evenodd" clip-rule="evenodd" d="M15.6826 10.1724L20.0202 16.304L20.1726 16.1513L15.9388 9.96332L15.6826 10.1724Z" fill="#C8CACC"/>
<path fill-rule="evenodd" clip-rule="evenodd" d="M8.57531 4.5545L8.42285 4.70719L14.5542 9.04473L14.7633 8.78853L8.57508 4.55473L8.57531 4.5545Z" fill="#C8CACC"/>
<path fill-rule="evenodd" clip-rule="evenodd" d="M20.331 4.39577C20.2433 4.30804 20.137 4.24624 20.0191 4.20948L19.9476 4.40907C20.022 4.4535 20.0919 4.50763 20.1558 4.57123C20.2194 4.63505 20.2735 4.70496 20.3179 4.77916L20.5175 4.70767C20.4807 4.58995 20.419 4.48372 20.3312 4.39577H20.331ZM19.8596 4.17566C19.6777 4.15378 19.4781 4.18242 19.2803 4.25842C19.4584 4.24354 19.6375 4.26947 19.8019 4.33646L19.8596 4.17566ZM20.3905 4.92508C20.4577 5.08949 20.4835 5.26833 20.4686 5.44672C20.5448 5.24893 20.5732 5.04934 20.5513 4.86734L20.3905 4.92508Z" fill="#15BDB1"/>
<path fill-rule="evenodd" clip-rule="evenodd" d="M9.52553 15.3238L9.52711 15.3222L9.55327 15.297L9.5792 15.272L9.60559 15.2465L9.63198 15.221L9.65836 15.1955L9.68498 15.1698L9.71159 15.1441L9.73843 15.1184L9.76549 15.0924L9.79233 15.0665L9.81939 15.0403L9.84645 15.014L9.87374 14.9876L9.90103 14.961L9.92854 14.9343L9.95628 14.9077L9.98402 14.8809L10.0118 14.8541L10.0397 14.827L10.0677 14.7997L10.0959 14.7724L10.1241 14.7451L10.1523 14.7176L10.1807 14.6899L10.2091 14.6621L10.2377 14.6342L10.2664 14.6062L10.2952 14.578L10.3241 14.5496L10.353 14.5212L10.1917 14.357L10.1629 14.3852L10.1342 14.4134L10.1056 14.4413L10.0769 14.4695L10.0485 14.4973L10.0203 14.525L9.99214 14.5525L9.96395 14.58L9.93599 14.6073L9.90802 14.6344L9.88006 14.6615L9.85232 14.6885L9.82458 14.7154L9.79684 14.7422L9.76932 14.7688L9.74181 14.7954L9.71452 14.8218L9.68723 14.848L9.66017 14.8744L9.6331 14.9005L9.60604 14.9264L9.5792 14.9524L9.55237 14.9781L9.52575 15.0038L9.49914 15.0293L9.47253 15.0548L9.44614 15.0803L9.41998 15.1055L9.39382 15.131L9.36766 15.156L9.36608 15.1576L9.52575 15.3234L9.52553 15.3238ZM22.4197 15.2289L22.3925 15.3001L22.3652 15.3705L22.3379 15.4397L22.3106 15.5079L22.2831 15.5751L22.2556 15.6411L22.2281 15.7063L22.2005 15.7704L22.173 15.8335L22.1453 15.8955L22.1178 15.9569L22.09 16.0171L22.0623 16.0762L22.0345 16.1344L22.0332 16.1371L22.24 16.2383L22.242 16.2343L22.2704 16.1745L22.2989 16.1138L22.3271 16.0523L22.3555 15.9898L22.3837 15.9264L22.4119 15.8619L22.44 15.7965L22.468 15.73L22.496 15.6628L22.5242 15.5942L22.5519 15.5248L22.5799 15.4544L22.6076 15.3829L22.6354 15.3103L22.4202 15.2287L22.4197 15.2289ZM21.7123 16.7376L21.6981 16.7611L21.6699 16.8076L21.6417 16.8531L21.6135 16.898L21.5851 16.9417L21.5567 16.9846L21.5282 17.0268L21.4998 17.068L21.4714 17.1086L21.443 17.1483L21.4146 17.1873L21.3859 17.2255L21.3575 17.2629L21.3289 17.2994L21.3002 17.3353L21.2714 17.3705L21.2427 17.4048L21.2141 17.4384L21.1854 17.4711L21.1566 17.5033L21.1279 17.5347L21.0991 17.5653L21.0702 17.5953L21.0413 17.6246L21.0364 17.6296L21.1976 17.794L21.2046 17.787L21.2355 17.7557L21.2662 17.7236L21.2969 17.6909L21.3275 17.6576L21.358 17.6235L21.3884 17.5888L21.4186 17.5531L21.4489 17.5168L21.4791 17.4796L21.5093 17.442L21.5393 17.4034L21.5693 17.3642L21.5993 17.3242L21.6291 17.2834L21.6588 17.2417L21.6886 17.1993L21.7181 17.156L21.7479 17.112L21.7772 17.0671L21.8068 17.0216L21.8361 16.9751L21.8656 16.9278L21.8949 16.8795L21.9089 16.8558L21.7116 16.7372L21.7123 16.7376ZM20.5183 18.0434L20.5177 18.0439L20.4881 18.0617L20.4586 18.0791L20.429 18.0958L20.3995 18.112L20.3697 18.1278L20.3402 18.1429L20.3104 18.1578L20.2806 18.172L20.2509 18.1857L20.2211 18.1991L20.1911 18.2119L20.1611 18.2243L20.1311 18.2363L20.1011 18.248L20.0709 18.259L20.0407 18.2699L20.0105 18.2802L19.9802 18.2902L19.9498 18.2999L19.9193 18.3089L19.8887 18.3177L19.8582 18.3263L19.8276 18.3341L19.7969 18.3418L19.766 18.349L19.7351 18.356L19.7042 18.3626L19.6731 18.3689L19.6419 18.3747L19.6108 18.3804L19.5795 18.3858L19.5481 18.3908L19.5168 18.3955L19.4852 18.4L19.4834 18.4002L19.5127 18.6287L19.5166 18.628L19.5504 18.6233L19.584 18.6183L19.6174 18.6129L19.651 18.6073L19.6846 18.6012L19.7182 18.5949L19.7515 18.5881L19.7849 18.5809L19.8181 18.5734L19.8515 18.5655L19.8848 18.5572L19.9182 18.5484L19.9516 18.5394L19.9845 18.5299L20.0177 18.52L20.0506 18.5096L20.0835 18.4988L20.1167 18.4875L20.1496 18.4758L20.1823 18.4636L20.2152 18.451L20.2479 18.4379L20.2806 18.4244L20.3133 18.4101L20.346 18.3955L20.3785 18.3804L20.411 18.3648L20.4435 18.3488L20.4759 18.3321L20.5084 18.315L20.5407 18.2972L20.5729 18.2789L20.6052 18.2602L20.6372 18.2408L20.6379 18.2403L20.5177 18.0441L20.5183 18.0434ZM18.8098 18.4388H18.8059L18.7728 18.4386L18.7394 18.4381L18.706 18.4377L18.6724 18.437L18.6388 18.4363L18.6052 18.4354L18.5714 18.4345L18.5375 18.4334L18.5035 18.4322L18.4694 18.4311L18.4354 18.43L18.4013 18.4286L18.367 18.4273L18.3325 18.4262L18.298 18.4248L18.2635 18.4235L18.229 18.4219L18.1945 18.4205L18.1598 18.4192L18.1251 18.4178L18.0901 18.4165L18.0551 18.4151L18.0202 18.4138L17.985 18.4124L17.9498 18.411L17.9144 18.4097L17.879 18.4086L17.8436 18.4074L17.808 18.4063L17.7723 18.4052L17.7367 18.4043L17.7008 18.4034L17.665 18.4027L17.6614 18.4025L17.6573 18.6327H17.6605L17.6957 18.6334L17.7308 18.6343L17.766 18.6352L17.801 18.6363L17.8362 18.6375L17.8713 18.6386L17.9063 18.6397L17.9413 18.6411L17.9762 18.6424L18.0112 18.6438L18.0459 18.6451L18.0806 18.6465L18.1154 18.6479L18.1501 18.6492L18.1848 18.6506L18.2196 18.6519L18.2543 18.6533L18.289 18.6546L18.3237 18.656L18.3583 18.6573L18.3928 18.6587L18.4275 18.66L18.4618 18.6612L18.4963 18.6623L18.5308 18.6634L18.5653 18.6643L18.5998 18.6652L18.6343 18.6661L18.6686 18.6668L18.7029 18.6675L18.7371 18.6679L18.7714 18.6684L18.8057 18.6686H18.8095L18.8104 18.4383L18.8098 18.4388ZM16.9595 18.4183L16.9298 18.4205L16.8923 18.4237L16.8544 18.4271L16.817 18.4307L16.7791 18.4345L16.7412 18.4388L16.7033 18.4433L16.6655 18.448L16.6273 18.453L16.5892 18.4586L16.5509 18.4645L16.5125 18.4708L16.4742 18.4771L16.4359 18.4841L16.3973 18.4913L16.3587 18.4988L16.3199 18.5067L16.2812 18.515L16.2424 18.5238L16.2034 18.5331L16.1643 18.5428L16.1251 18.5527L16.0861 18.5628L16.0468 18.5737L16.0076 18.5849L15.9684 18.5967L15.9289 18.6088L15.8894 18.6215L15.8497 18.6345L15.81 18.6483L15.8048 18.6501L15.8829 18.8668L15.886 18.8657L15.9235 18.8529L15.9607 18.8407L15.9979 18.8287L16.0351 18.8172L16.0723 18.8064L16.1095 18.7956L16.1465 18.7854L16.1835 18.7755L16.2205 18.766L16.2575 18.757L16.2942 18.7482L16.331 18.7401L16.3678 18.7322L16.4043 18.7248L16.4408 18.7175L16.4776 18.7108L16.5141 18.7045L16.5507 18.6981L16.5872 18.6923L16.6235 18.6869L16.66 18.6817L16.6964 18.6767L16.7327 18.6722L16.769 18.6679L16.8051 18.6639L16.8411 18.66L16.8774 18.6564L16.9133 18.6533L16.9494 18.6503L16.9792 18.6481L16.9611 18.4185L16.9595 18.4183ZM15.1576 18.9422L15.1269 18.9593L15.0861 18.9828L15.0453 19.0069L15.0045 19.0315L14.9634 19.057L14.9226 19.0829L14.8815 19.1095L14.8407 19.1366L14.7997 19.1645L14.7586 19.1929L14.7174 19.2223L14.6761 19.2523L14.635 19.2829L14.5938 19.3141L14.5525 19.3461L14.5112 19.3788L14.4697 19.4122L14.4282 19.4462L14.3867 19.4809L14.345 19.5164L14.3033 19.5529L14.2618 19.5899L14.2201 19.6275L14.2097 19.6372L14.3667 19.8057L14.3755 19.7978L14.4156 19.7613L14.4558 19.7256L14.4957 19.6909L14.5356 19.6569L14.5753 19.6235L14.6152 19.5908L14.6547 19.5588L14.6944 19.5276L14.7338 19.4972L14.7733 19.4672L14.8128 19.4379L14.852 19.4095L14.8912 19.3817L14.9305 19.3544L14.9695 19.328L15.0085 19.3021L15.0475 19.2768L15.0865 19.2523L15.1253 19.2284L15.1641 19.2049L15.2027 19.1821L15.2413 19.1598L15.2719 19.1427L15.158 18.9424L15.1576 18.9422ZM13.7192 20.1384L13.7151 20.1426L13.6727 20.1909L13.6315 20.2383L13.5902 20.2849L13.5489 20.3312L13.5079 20.3767L13.4668 20.4218L13.4258 20.4663L13.385 20.51L13.3441 20.5533L13.3035 20.5962L13.2629 20.6383L13.2223 20.6801L13.182 20.7211L13.1416 20.7617L13.1012 20.8016L13.0611 20.8411L13.021 20.8801L12.981 20.9184L12.9411 20.9563L12.9335 20.9633L13.0902 21.1318L13.0988 21.1239L13.1398 21.0851L13.1809 21.0459L13.2219 21.0062L13.2629 20.9658L13.3042 20.9248L13.3455 20.8833L13.3868 20.8411L13.4283 20.7987L13.4698 20.7556L13.5115 20.7121L13.553 20.6679L13.5947 20.623L13.6364 20.5777L13.6784 20.5319L13.7203 20.4854L13.7623 20.4383L13.8044 20.3907L13.8466 20.3427L13.8877 20.2958L13.8917 20.2915L13.7194 20.1388L13.7192 20.1384ZM12.4181 21.4087L12.3904 21.4306L12.352 21.4606L12.3135 21.4902L12.2751 21.5192L12.2368 21.5479L12.1987 21.5761L12.1608 21.6036L12.1229 21.6307L12.085 21.6573L12.0474 21.6834L12.0097 21.7091L11.972 21.7344L11.9346 21.7592L11.8974 21.7836L11.8602 21.8072L11.823 21.8305L11.786 21.8535L11.749 21.8758L11.712 21.8977L11.6755 21.9191L11.6389 21.9401L11.6024 21.9606L11.5661 21.9809L11.5298 22.0005L11.4937 22.0197L11.4763 22.0287L11.5819 22.2335L11.601 22.2236L11.6389 22.2033L11.6768 22.1827L11.7147 22.1618L11.7528 22.1401L11.7909 22.1182L11.8291 22.0959L11.8674 22.0729L11.9057 22.0497L11.9443 22.026L11.9829 22.0016L12.0216 21.9771L12.0604 21.9518L12.0992 21.9261L12.1382 21.8999L12.1773 21.8733L12.2165 21.8463L12.2557 21.8187L12.295 21.7906L12.3345 21.7619L12.3739 21.7328L12.4134 21.7033L12.4531 21.6733L12.493 21.6426L12.5327 21.6115L12.5602 21.5896L12.4179 21.4085L12.4181 21.4087ZM10.8593 22.293L10.8291 22.3029L10.7952 22.3138L10.7614 22.3241L10.7278 22.3343L10.6944 22.344L10.6611 22.3532L10.6279 22.362L10.5947 22.3706L10.5618 22.3787L10.5291 22.3864L10.4964 22.3936L10.4637 22.4006L10.4312 22.4071L10.399 22.4135L10.3667 22.4193L10.3345 22.425L10.3027 22.4301L10.2709 22.4349L10.2391 22.4394L10.2075 22.4435L10.1762 22.4473L10.1448 22.4507L10.1137 22.4538L10.0826 22.4565L10.0515 22.4588L10.0208 22.4608L9.99011 22.4624L9.95944 22.4637L9.92899 22.4649L9.89877 22.4656L9.86878 22.466H9.83878L9.80879 22.4658L9.77925 22.4653L9.76774 22.4649L9.7594 22.6949L9.77361 22.6954L9.80586 22.696L9.83811 22.6963H9.87058L9.90328 22.6958L9.93599 22.6949L9.96869 22.6938L10.0016 22.6924L10.035 22.6904L10.0681 22.6881L10.1015 22.6857L10.1349 22.6827L10.1685 22.6796L10.2023 22.6757L10.2362 22.6717L10.2702 22.6672L10.304 22.6624L10.3383 22.6575L10.3726 22.6518L10.4071 22.6457L10.4416 22.6397L10.4763 22.6329L10.5111 22.6259L10.5458 22.6185L10.5808 22.6106L10.6159 22.6022L10.6511 22.5937L10.6863 22.5846L10.7217 22.5752L10.7574 22.5652L10.793 22.5549L10.8286 22.5443L10.8645 22.5332L10.9003 22.5217L10.9306 22.5118L10.8595 22.2928L10.8593 22.293ZM9.11462 22.3645L9.10334 22.3614L9.07696 22.3537L9.0508 22.3456L9.02441 22.3372L8.99825 22.3287L8.97209 22.3196L8.94615 22.3106L8.92067 22.3014L8.89496 22.2917L8.86947 22.2818L8.84421 22.2716L8.81896 22.2612L8.79392 22.2506L8.76911 22.2398L8.74431 22.2288L8.71972 22.2172L8.69537 22.2057L8.67101 22.194L8.64665 22.1821L8.62275 22.1699L8.59907 22.1575L8.57516 22.1446L8.55148 22.1318L8.52803 22.1185L8.5048 22.1052L8.48157 22.0916L8.45834 22.0776L8.43556 22.0637L8.41278 22.0495L8.39023 22.035L8.36768 22.0204L8.34535 22.0055L8.32302 21.9906L8.30115 21.9753L8.27927 21.9599L8.2574 21.9441L8.23575 21.9284L8.21432 21.9123L8.19312 21.8961L8.17192 21.8799L8.15095 21.8634L8.14148 21.8557L7.99646 22.0346L8.00729 22.0434L8.02984 22.0612L8.05262 22.0788L8.0754 22.0961L8.09863 22.1135L8.12186 22.1306L8.14531 22.1473L8.16899 22.164L8.1929 22.1805L8.2168 22.1965L8.24093 22.2125L8.26529 22.2283L8.28965 22.2439L8.31423 22.2594L8.33904 22.2745L8.36384 22.2894L8.3891 22.3041L8.41436 22.3185L8.43985 22.3327L8.46556 22.3467L8.49127 22.3605L8.5172 22.374L8.54336 22.3873L8.56952 22.4002L8.59591 22.413L8.62252 22.4256L8.64913 22.4378L8.67597 22.4498L8.70304 22.4615L8.73032 22.473L8.75739 22.4843L8.7849 22.4953L8.81264 22.5061L8.84038 22.5165L8.86835 22.5269L8.89654 22.5368L8.92473 22.5465L8.95314 22.5558L8.98179 22.5648L9.01043 22.5736L9.03929 22.5822L9.05057 22.5853L9.11462 22.3641V22.3645ZM7.66945 21.3866L7.65998 21.3749L7.64329 21.3542L7.6266 21.3334L7.61036 21.3124L7.59412 21.2912L7.57811 21.27L7.56233 21.2488L7.54654 21.2274L7.53098 21.2058L7.51564 21.1841L7.50031 21.1625L7.48542 21.1406L7.47054 21.1187L7.45588 21.0966L7.44144 21.0745L7.42701 21.0522L7.41303 21.0299L7.39904 21.0073L7.38529 20.9848L7.37176 20.9622L7.35822 20.9394L7.34492 20.9166L7.33184 20.8936L7.31898 20.8709L7.30635 20.8479L7.29372 20.8246L7.28132 20.8016L7.26914 20.7784L7.25696 20.7552L7.24524 20.7317L7.23351 20.7085L7.22201 20.685L7.21073 20.6613L7.19968 20.6377L7.18885 20.614L7.17825 20.5903L7.16766 20.5666L7.15728 20.5429L7.14713 20.519L7.13721 20.4954L7.12751 20.4715L7.11781 20.4475L7.10992 20.4275L6.89545 20.5107L6.90402 20.5326L6.91416 20.5581L6.92454 20.5835L6.93514 20.609L6.94596 20.6343L6.95679 20.6595L6.96806 20.685L6.97957 20.7103L6.99129 20.7355L7.00302 20.7606L7.01497 20.7856L7.02715 20.8106L7.03956 20.8357L7.05219 20.8605L7.06482 20.8853L7.07767 20.9099L7.09098 20.9345L7.10428 20.9588L7.11781 20.9834L7.13157 21.0078L7.14555 21.0321L7.15976 21.0562L7.17397 21.0804L7.18863 21.1045L7.20329 21.1284L7.21795 21.1521L7.23306 21.176L7.24817 21.1997L7.2635 21.2234L7.27906 21.2468L7.29485 21.27L7.31086 21.2933L7.3271 21.3165L7.34334 21.3395L7.36003 21.3625L7.37672 21.3853L7.39363 21.4081L7.41077 21.4306L7.42791 21.4532L7.44528 21.4755L7.46287 21.4978L7.48069 21.5201L7.49038 21.5319L7.669 21.3866H7.66945ZM6.92747 19.785C6.86094 19.4196 6.85011 19.0513 6.9304 18.6871L6.70555 18.6375C6.6176 19.0261 6.62978 19.4365 6.70104 19.8264L6.92747 19.7847V19.785ZM7.14871 18.0622C7.305 17.7304 7.53752 17.4113 7.76891 17.1283L7.59142 16.9817C7.34965 17.2737 7.10361 17.6181 6.94168 17.9616L7.14871 18.0622ZM8.22176 16.6168L8.22334 16.6152L8.24296 16.5944L8.26258 16.5737L8.28243 16.5529L8.3025 16.532L8.32257 16.511L8.34265 16.49L8.36294 16.469L8.38347 16.4478L8.40399 16.4266L8.42451 16.4054L8.44526 16.3842L8.46623 16.3628L8.48721 16.3414L8.50841 16.32L8.52961 16.2985L8.55103 16.2769L8.57268 16.255L8.59433 16.2331L8.61598 16.2115L8.63786 16.1896L8.65973 16.1677L8.68206 16.1456L8.70439 16.1235L8.72672 16.1014L8.74927 16.0791L8.77182 16.0568L8.7946 16.0345L8.81738 16.0119L8.84038 15.9894L8.86338 15.9668L8.88661 15.944L8.90984 15.9212L8.9333 15.8985L8.95675 15.8755L8.98043 15.8525L9.00411 15.8295L9.02802 15.8062L9.0296 15.8049L8.86902 15.6398L8.86744 15.6414L8.84354 15.6646L8.81963 15.6878L8.79595 15.7108L8.77227 15.7341L8.74882 15.7568L8.72536 15.7798L8.70213 15.8026L8.6789 15.8254L8.6559 15.8482L8.6329 15.8707L8.60989 15.8933L8.58712 15.9158L8.56456 15.9382L8.54201 15.9607L8.51968 15.983L8.49736 16.0051L8.47503 16.0275L8.45315 16.0496L8.43128 16.0714L8.4094 16.0935L8.38775 16.1154L8.3661 16.1373L8.34467 16.1592L8.32325 16.1808L8.30205 16.2025L8.28085 16.2241L8.25965 16.2458L8.23868 16.2672L8.21793 16.2886L8.19718 16.31L8.17666 16.3315L8.15614 16.3529L8.13584 16.3741L8.11577 16.3951L8.09547 16.4163L8.0754 16.4375L8.05555 16.4584L8.05397 16.4602L8.22176 16.6179V16.6168Z" fill="white"/>
</g>
<defs>
<clipPath id="clip0_529_57">
<rect width="25" height="25" fill="white" transform="translate(0.5 0.5)"/>
</clipPath>
</defs>
</svg>
