<svg width="19" height="19" viewBox="0 0 19 19" fill="none" xmlns="http://www.w3.org/2000/svg">
<g clip-path="url(#clip0_1310_3586)">
<path d="M11.7308 10.3099L9.67466 8.85696C9.16641 8.49774 8.50675 8.45203 7.95456 8.73821C7.40178 9.0244 7.05859 9.58906 7.05859 10.2113V13.1171C7.05859 13.7394 7.40178 14.304 7.95456 14.5902C8.19622 14.7149 8.45806 14.7766 8.71813 14.7766C9.05419 14.7766 9.38847 14.6739 9.67466 14.4715L11.7308 13.0186C12.1702 12.7086 12.432 12.2022 12.432 11.6642C12.4326 11.1269 12.1702 10.6204 11.7308 10.3099ZM11.1139 12.1469L9.05775 13.5998C8.87488 13.7293 8.64509 13.7453 8.44619 13.642C8.24669 13.5387 8.12734 13.3427 8.12734 13.1177V10.2119C8.12734 9.98746 8.24669 9.79152 8.44619 9.68821C8.53347 9.64309 8.62669 9.62052 8.71872 9.62052C8.83747 9.62052 8.95444 9.65793 9.05775 9.73037L11.1139 11.1833C11.2724 11.2955 11.3633 11.4712 11.3633 11.6654C11.3633 11.8596 11.2724 12.0347 11.1139 12.1469Z" fill="#8E8E8E"/>
<path d="M14.1403 0.653076H4.86594C2.54497 0.653076 0.65625 2.54179 0.65625 4.86276V14.1371C0.65625 16.4581 2.54497 18.3468 4.86594 18.3468H14.1403C16.4613 18.3468 18.35 16.4581 18.35 14.1371V4.86276C18.35 2.54179 16.4613 0.653076 14.1403 0.653076ZM17.2812 4.86276V4.9827H13.8078C14.2798 4.11048 15.0909 2.67776 15.4614 2.02345C16.5331 2.52398 17.2812 3.60461 17.2812 4.86276ZM14.3903 1.74676C13.3203 3.63786 12.8257 4.53442 12.6019 4.98211H9.65156C10.0672 4.21201 10.7838 2.93367 11.475 1.72123H14.1403C14.2258 1.72183 14.3066 1.74023 14.3903 1.74676ZM10.2453 1.72183C9.17003 3.61292 8.67603 4.52195 8.44922 4.9827H5.49531C5.91094 4.21261 6.62759 2.93426 7.31872 1.72183H10.2453ZM4.86594 1.72183H6.08906C5.01378 3.61292 4.51978 4.52195 4.29297 4.9827H1.725V4.86276C1.725 3.13079 3.13397 1.72183 4.86594 1.72183ZM14.1403 17.2781H4.86594C3.13397 17.2781 1.725 15.8691 1.725 14.1371V6.05086H17.2812V14.1371C17.2812 15.8691 15.8723 17.2781 14.1403 17.2781Z" fill="#8E8E8E"/>
</g>
<defs>
<clipPath id="clip0_1310_3586">
<rect width="19" height="19" fill="white"/>
</clipPath>
</defs>
</svg>

