<svg width="21" height="17" viewBox="0 0 21 17" fill="none" xmlns="http://www.w3.org/2000/svg">
<mask id="mask0_1310_3581" style="mask-type:alpha" maskUnits="userSpaceOnUse" x="-2" y="-4" width="25" height="25">
<rect x="-1.72461" y="-3.66381" width="24.1918" height="24.1918" fill="#D9D9D9"/>
</mask>
<g mask="url(#mask0_1310_3581)">
<path d="M10.3707 0L20.7414 7.77312L19.8226 8.97868L17.9306 7.55968V17H2.81078V7.55968L0.918784 8.97868L0 7.77312L10.3707 0ZM6.26517 8.69342C6.26517 9.47545 6.68583 10.3091 7.52717 11.1942C8.36834 12.0796 9.31619 13.0004 10.3707 13.9566C11.4382 13.0004 12.3925 12.0799 13.2337 11.1952C14.075 10.3104 14.4957 9.4773 14.4957 8.69594C14.4957 8.04713 14.274 7.50819 13.8306 7.07912C13.3871 6.65005 12.855 6.43552 12.2342 6.43552C11.85 6.43552 11.4999 6.51406 11.1839 6.67113C10.8679 6.82804 10.5968 7.02998 10.3707 7.27694C10.1575 7.02998 9.88612 6.82804 9.55651 6.67113C9.22706 6.51406 8.88468 6.43552 8.52937 6.43552C7.90794 6.43552 7.37522 6.64946 6.9312 7.07735C6.48718 7.50541 6.26517 8.0441 6.26517 8.69342ZM16.4187 15.488V6.41611L10.3707 1.88015L4.32277 6.41611V15.488H16.4187Z" fill="white"/>
</g>
</svg>

