<svg width="17" height="17" viewBox="0 0 17 17" fill="none" xmlns="http://www.w3.org/2000/svg">
<path d="M16.8247 15.9015L13.4794 12.5562C14.7476 11.0501 15.385 9.11229 15.2588 7.14739C15.1325 5.18248 14.2522 3.34227 12.8016 2.01083C11.3511 0.679397 9.44237 -0.0403728 7.47386 0.0017498C5.50535 0.0438724 3.62916 0.844633 2.2369 2.2369C0.844633 3.62916 0.0438724 5.50535 0.0017498 7.47386C-0.0403728 9.44237 0.679397 11.3511 2.01083 12.8016C3.34227 14.2522 5.18248 15.1325 7.14739 15.2588C9.11229 15.385 11.0501 14.7476 12.5562 13.4794L15.9015 16.8247C16.0253 16.9401 16.1891 17.0029 16.3583 16.9999C16.5275 16.9969 16.689 16.9284 16.8087 16.8087C16.9284 16.689 16.9969 16.5275 16.9999 16.3583C17.0029 16.1891 16.9401 16.0253 16.8247 15.9015ZM1.33944 7.65373C1.33944 6.40488 1.70976 5.18408 2.40359 4.1457C3.09741 3.10732 4.08357 2.298 5.23735 1.82008C6.39114 1.34217 7.66073 1.21713 8.88558 1.46077C10.1104 1.7044 11.2355 2.30578 12.1186 3.18885C13.0017 4.07192 13.6031 5.19702 13.8467 6.42187C14.0903 7.64672 13.9653 8.91632 13.4874 10.0701C13.0095 11.2239 12.2001 12.21 11.1618 12.9039C10.1234 13.5977 8.90258 13.968 7.65373 13.968C5.97964 13.9662 4.37465 13.3003 3.19089 12.1166C2.00713 10.9328 1.34128 9.32782 1.33944 7.65373ZM10.2665 5.69412H5.04092C4.86768 5.69412 4.70153 5.76294 4.57903 5.88544C4.45654 6.00794 4.38772 6.17408 4.38772 6.34732C4.38772 6.52056 4.45654 6.68671 4.57903 6.80921C4.70153 6.93171 4.86768 7.00052 5.04092 7.00052H10.2665C10.4398 7.00052 10.6059 6.93171 10.7284 6.80921C10.8509 6.68671 10.9197 6.52056 10.9197 6.34732C10.9197 6.17408 10.8509 6.00794 10.7284 5.88544C10.6059 5.76294 10.4398 5.69412 10.2665 5.69412ZM8.52466 8.30693H5.04092C4.86768 8.30693 4.70153 8.37575 4.57903 8.49825C4.45654 8.62075 4.38772 8.78689 4.38772 8.96013C4.38772 9.13337 4.45654 9.29952 4.57903 9.42202C4.70153 9.54451 4.86768 9.61333 5.04092 9.61333H8.52466C8.6979 9.61333 8.86405 9.54451 8.98655 9.42202C9.10905 9.29952 9.17787 9.13337 9.17787 8.96013C9.17787 8.78689 9.10905 8.62075 8.98655 8.49825C8.86405 8.37575 8.6979 8.30693 8.52466 8.30693Z" fill="#8E8E8E"/>
</svg>

