<svg width="22" height="22" viewBox="0 0 22 22" fill="none" xmlns="http://www.w3.org/2000/svg">
<g clip-path="url(#clip0_1310_3590)">
<path d="M10.9918 21.8545C16.9934 21.8545 21.8586 16.9893 21.8586 10.9877C21.8586 4.98614 16.9934 0.120911 10.9918 0.120911C4.99023 0.120911 0.125 4.98614 0.125 10.9877C0.125 16.9893 4.99023 21.8545 10.9918 21.8545Z" fill="#4BAE4F"/>
<path d="M5.58847 16.9041C5.4612 16.9041 5.33708 16.8536 5.24508 16.7606C5.12385 16.638 5.077 16.46 5.12264 16.2934L5.83478 13.6926C5.38634 12.8479 5.15041 11.8998 5.15065 10.9382C5.15186 7.70329 7.78428 5.07135 11.0185 5.07135C12.5876 5.07183 14.0619 5.68303 15.1694 6.79217C16.277 7.90106 16.8866 9.37533 16.8861 10.943C16.8849 14.1785 14.2527 16.8106 11.0182 16.8106C10.103 16.8104 9.19721 16.5952 8.38461 16.1869L5.7109 16.8881C5.67057 16.899 5.62928 16.9041 5.58847 16.9041ZM8.44305 15.1893C8.52323 15.1893 8.60292 15.2093 8.6744 15.2482C9.38943 15.6382 10.1991 15.8445 11.0166 15.8447C13.7205 15.8447 15.9192 13.6457 15.9204 10.9426C15.9209 9.63275 15.4116 8.40118 14.4862 7.47484C13.5608 6.54827 12.3293 6.03777 11.0185 6.03729C8.31676 6.03729 6.11804 8.236 6.11683 10.9389C6.11659 11.7998 6.34286 12.6474 6.77101 13.3893C6.83549 13.5011 6.8524 13.6339 6.81859 13.7583L6.27549 15.7416L8.32086 15.205C8.36071 15.1946 8.402 15.1893 8.44305 15.1893Z" fill="white"/>
<path d="M8.91301 11.0471C8.84419 10.9553 8.35156 10.3014 8.35156 9.62453C8.35156 8.94765 8.70679 8.61488 8.83284 8.47724C8.9589 8.33959 9.10789 8.3053 9.19966 8.3053C9.29142 8.3053 9.38318 8.30626 9.46336 8.31013C9.54788 8.31447 9.66113 8.27801 9.7727 8.5463C9.8874 8.82159 10.1622 9.49871 10.1967 9.56754C10.2313 9.63636 10.254 9.71653 10.2083 9.80854C10.1625 9.9003 10.1395 9.95753 10.0709 10.0379C10.0021 10.1184 9.92652 10.2174 9.86446 10.2789C9.79564 10.3475 9.72392 10.4219 9.80409 10.5596C9.88426 10.6972 10.1603 11.1476 10.5691 11.5125C11.0943 11.9812 11.5375 12.1263 11.6751 12.1951C11.8125 12.264 11.8929 12.2526 11.9731 12.1606C12.0533 12.0688 12.317 11.759 12.4087 11.6214C12.5005 11.4837 12.592 11.5067 12.7181 11.5525C12.8441 11.5984 13.5203 11.9312 13.6577 12C13.7951 12.0688 13.8869 12.1034 13.9214 12.1606C13.9559 12.2181 13.9559 12.4934 13.8412 12.8145C13.7265 13.1357 13.1771 13.4291 12.913 13.4685C12.6761 13.504 12.3761 13.5187 12.0468 13.4139C11.847 13.3506 11.5908 13.2659 11.2627 13.1241C9.88282 12.5281 8.98208 11.1389 8.91301 11.0471Z" fill="white"/>
</g>
<defs>
<clipPath id="clip0_1310_3590">
<rect width="22" height="22" fill="white"/>
</clipPath>
</defs>
</svg>

