<svg width="96" height="96" viewBox="0 0 96 96" fill="none" xmlns="http://www.w3.org/2000/svg">
<path fill-rule="evenodd" clip-rule="evenodd" d="M48 96C74.4378 96 96 74.437 96 48C96 21.5622 74.4378 0 48 0C21.5622 0 0 21.563 0 48C0 74.437 21.563 96 48 96Z" fill="white" fill-opacity="0.38"/>
<path fill-rule="evenodd" clip-rule="evenodd" d="M48.0013 23.9333C71.4643 23.9333 90.483 42.9528 90.483 66.415C90.483 67.8881 90.4076 69.3431 90.2621 70.7772C82.1501 85.7957 66.2682 96 48.0013 96C29.7343 96 13.8532 85.7966 5.74123 70.7781C5.59487 69.3439 5.51953 67.8881 5.51953 66.415C5.51953 42.952 24.5399 23.9333 48.0013 23.9333Z" fill="#0E7886"/>
<path fill-rule="evenodd" clip-rule="evenodd" d="M74.5449 33.2465C82.4448 39.5762 88.0349 48.6668 89.8492 59.0582C89.7211 58.8616 89.5903 58.6036 89.4587 58.2208C88.629 58.4927 88.6022 58.5152 87.6227 58.678L87.5794 58.7378C87.1897 59.2929 87.5993 59.0582 86.9143 59.6367C86.0994 60.3226 85.5685 61.2588 84.6574 61.8139C84.5475 62.7838 84.738 63.0021 84.4938 64.1556C84.3985 64.5808 83.9222 65.724 83.3645 65.6374C83.1878 65.6045 82.4396 63.7529 82.2629 63.2411C81.9633 62.3699 81.6238 61.7273 81.4064 60.7253C81.2843 60.191 81.202 59.1673 81.0799 58.8079C80.4954 58.8945 80.5213 59.2661 79.9636 58.8738C79.5696 58.5897 79.7471 58.4165 79.528 57.9913C79.0664 57.5557 78.5901 57.1201 78.1147 56.6845C77.7466 56.5649 76.3324 56.7711 75.7331 56.7061C74.6592 56.6074 74.5648 56.6732 73.9257 55.8132C72.7956 55.8687 72.8917 56.2922 71.7893 55.3447C71.0687 54.735 71.2047 53.7547 70.1577 54.3098C70.1178 55.2027 70.5526 55.4002 70.9466 55.8132C71.2315 56.1293 71.5857 56.3467 71.7347 56.7711C71.7486 56.7832 71.817 57.185 71.8308 57.2396C72.851 57.3054 73.0952 56.8161 73.6529 56.4021C74.1977 56.9131 73.6668 57.0014 74.4557 57.4033C75.081 57.7202 74.9589 57.5349 75.3659 58.0458C75.5703 58.7317 73.9664 60.5945 73.4347 60.9323C73.0268 61.1938 72.8103 61.0414 72.4422 61.3445C71.8984 61.8035 72.5107 61.7377 71.5589 62.0858C70.5387 62.4565 69.5315 63.2402 68.4577 63.306C68.2265 62.673 67.9952 62.0321 67.764 61.3895C67.0833 59.2002 67.111 60.0498 66.4165 58.9171C66.09 58.426 66.2259 58.1108 66.0086 57.6752C65.8579 57.3487 65.6284 57.2067 65.4231 56.8048C65.1105 56.1839 64.7442 55.2148 64.0228 55.3127C63.873 55.802 64.6888 57.4578 64.8923 57.8605C65.0967 58.2641 65.4231 58.4381 65.5184 59.0158C65.6544 59.8099 65.4916 59.7112 65.9263 60.2447C66.8382 61.3436 65.8856 61.1488 67.3007 62.2261C68.3607 63.0332 68.0896 63.2723 68.5382 64.3513C69.2319 64.5462 71.2991 63.6221 71.6516 63.8941C72.0733 64.6449 71.1631 65.8426 70.9319 66.4965C70.1698 68.6858 68.837 68.6537 67.8168 70.3303C67.26 71.2353 67.001 71.3548 66.484 72.4443C65.8986 73.6749 67.667 77.0835 66.607 78.5116C66.3758 78.8372 65.6275 79.0338 64.6896 80.0254C63.6963 81.1027 64.7165 80.9183 64.3354 82.7144C64.0366 83.1284 63.6695 83.15 63.3023 83.4453C63.1663 83.8688 63.2754 84.2057 63.0433 84.7296C62.7982 85.361 62.7584 85.0232 62.4033 85.5359C62.1453 85.9377 62.173 86.1014 61.8733 86.4721C61.6153 86.8107 61.4784 86.9068 61.2351 87.1259C60.0512 88.2154 57.5077 88.2474 57.2904 88.095C56.6911 87.584 57.0998 87.4533 56.9509 86.7345C56.8054 86.1023 56.4702 85.5731 56.1905 85.0856L56.1619 85.0353C56.0268 84.7963 55.9039 84.5668 55.8354 84.3486C55.3453 82.8019 55.5228 81.6276 54.6663 80.0583C53.5916 78.0318 55.2639 76.9762 55.1955 75.8322C55.1686 75.5273 55.0604 75.342 55.0318 75.1021C54.8283 73.8386 54.707 72.7067 53.8635 71.7151C52.9377 70.6378 53.0607 71.0179 53.3595 69.2435C53.7397 67.2066 52.8702 67.7288 51.6456 67.6751C51.0464 65.8244 49.8764 66.7268 48.7072 67.2724C47.972 67.6093 47.7009 67.1746 46.8704 67.2941C45.0206 67.5443 46.4764 68.3402 44.0004 66.3796C42.9664 65.562 43.6601 65.976 43.0487 64.9524C42.8451 64.5817 42.219 64.0924 41.9324 63.7209C40.9945 62.5448 42.1099 61.3575 41.9462 60.0074C41.6604 57.502 41.2525 59.68 42.6538 56.6524C43.389 55.0408 44.5036 55.0304 44.7902 54.3107C45.0353 53.669 44.8716 53.2109 45.3341 52.6228C45.742 52.1439 46.3274 52.2418 46.5586 51.4901C46.8851 50.5643 46.259 50.4457 45.5792 50.4223C45.2943 49.4532 45.2943 49.6922 45.5108 48.7994C45.6337 48.2979 45.5246 48.058 45.6337 47.5575C45.9057 46.3052 48.0413 47.5471 48.6535 47.0344C48.9385 46.5009 48.98 45.9787 48.6535 45.466C48.3123 44.9542 47.8646 45.0192 47.6334 44.5299C48.1504 44.1817 47.7693 44.4866 48.2179 44.3878C48.7479 44.2683 48.6795 44.1151 49.3057 43.9964C49.8642 43.8864 50.2184 43.3755 50.7614 43.0273C51.5365 42.5259 51.1693 42.0782 52.1081 41.9275C53.6176 41.6651 52.6381 41.7092 52.8026 40.3037C53.033 40.2171 53.2504 40.1175 53.4677 40.0205C53.9441 40.6414 53.3456 40.3912 53.9163 40.8043C54.0662 40.7177 54.2428 40.6311 54.4065 40.5445C54.3242 39.8681 54.0125 39.9989 53.8081 39.1614C53.0598 39.2809 52.7879 39.9123 52.1895 39.6836C51.6049 39.4663 51.5772 38.6271 51.6049 37.9299C51.8223 37.4077 52.91 37.1245 53.3309 36.9929C54.0125 36.7643 53.9163 36.307 54.5416 35.6852C55.3583 34.8686 54.759 35.6965 55.1539 34.6408C56.0519 34.607 55.6302 34.575 56.1602 34.303L56.187 34.2927L56.2416 34.2701C56.5551 34.1281 56.963 34.0961 57.3709 33.9549C58.8665 33.4543 59.4788 33.7046 60.5665 34.1498C61.41 34.4988 63.9535 34.5092 64.144 35.5778C63.5326 36.2187 62.9481 35.751 62.063 35.8065C62.2258 36.6335 62.2934 36.6335 63.0425 36.8621C63.1654 36.4698 62.9879 36.6231 63.1923 36.372C63.4374 36.4265 63.6824 36.4698 63.9267 36.5149C64.1726 35.6757 64.4575 35.7961 65.288 35.6973C65.1512 35.1197 65.0014 35.2834 65.314 34.8261C66.1723 34.9145 65.4777 34.8382 65.8995 35.5241C66.4979 35.4471 67.0833 34.7828 67.9121 34.6962C68.4291 34.6417 68.4023 34.8382 69.1358 34.7612C69.7342 34.6962 69.7065 34.478 70.3066 34.7291C70.5231 34.3256 70.3066 34.336 70.8366 34.239C71.6516 34.0969 72.36 34.5975 73.148 34.7075C72.5643 33.9895 72.0058 34.1298 72.7272 32.9321C73.6382 32.7468 73.7196 32.8776 74.1145 33.5643C74.338 33.4388 74.4332 33.3123 74.5441 33.2482L74.5449 33.2465ZM28.7957 91.999C27.3806 91.3807 26.0019 90.6956 24.6622 89.9491C24.6457 89.8937 24.631 89.8331 24.618 89.7629C24.4145 88.5531 24.9315 88.4223 24.3591 86.4071C23.9841 85.0743 24.1348 81.9168 23.7382 80.2982C23.6749 80.0401 23.597 79.821 23.5026 79.6539C23.1354 79.0451 22.2373 78.7619 21.5177 78.2709C21.4761 78.2613 21.4493 78.2492 21.4363 78.2276C20.443 77.5304 19.5042 74.7964 18.7152 73.7736C18.3489 73.2826 18.1177 73.5 17.954 72.7275C17.7773 72.0199 18.0493 72.1403 18.2814 71.5506C17.0707 69.3292 19.8454 69.3613 19.2747 66.693C19.1517 66.2029 18.7992 65.517 18.4996 65.3005C17.928 65.5508 18.1991 65.6911 17.9003 66.1708C17.4387 65.9093 16.9763 65.6469 16.5277 65.3871C15.1265 64.0361 15.8738 65.0156 15.4807 64.134C14.6372 62.2824 13.8335 63.3182 12.8272 62.4028C12.3777 62.0209 12.2963 61.4216 11.5489 61.5316C10.4196 61.684 11.0449 61.8581 9.87578 61.3125C8.88246 60.844 7.8493 60.3001 7.15475 59.6679C7.1279 58.6876 7.4821 58.6434 6.86983 57.7297C6.76157 57.56 6.63947 57.4024 6.51562 57.2517C8.42953 48.5439 13.0125 40.838 19.3656 35.0357C19.8593 35.208 20.5122 35.0946 21.0024 35.0747C21.1782 34.7482 21.2873 34.4641 21.6008 34.3446C21.7229 34.3013 21.8728 34.2909 22.0763 34.3013C22.1031 34.4633 22.1447 34.6278 22.1854 34.7906C22.1854 34.8027 22.2131 34.911 22.1992 34.8893C22.2131 34.8668 22.2261 34.9543 22.2391 34.9863C23.0973 34.4858 22.3759 34.4745 22.8375 33.5704C22.117 33.4284 22.2122 33.515 21.7628 33.0577C22.1992 32.5788 23.041 32.4151 23.6671 32.4593C23.6256 32.8958 23.4221 32.8845 23.5866 33.2543C24.0759 32.9495 24.4163 32.1337 25.2043 32.2852C25.3542 32.3935 25.5317 32.4922 25.6945 32.5901C25.2857 32.9711 24.6743 32.9936 24.1443 33.211C23.9122 35.5752 24.8926 33.5929 24.5652 35.2158C25.1498 35.1725 25.7213 34.7473 25.9387 34.3117C25.7213 34.0285 25.4078 34.0285 25.232 33.6908C25.3689 33.2552 25.6616 32.9252 26.0755 32.7286C26.3553 32.5961 26.6896 32.5251 27.0689 32.5251C31.3938 32.558 29.3396 32.7537 30.6732 33.3643C30.972 33.4942 31.502 33.5609 31.6796 33.8215C31.9515 34.2355 31.6934 34.6269 32.1282 34.9543C32.5092 35.2375 32.5638 34.943 33.0669 35.5761C32.9587 35.9346 32.6997 36.3053 32.1697 36.3165C31.4353 36.3269 31.8701 35.8255 31.0811 35.9026C31.0959 36.6422 31.8294 36.9262 31.1487 37.3289C30.5503 37.6892 30.9305 37.199 30.4827 37.4493C30.4689 37.4606 30.4282 37.4822 30.4152 37.4935C30.3883 37.5151 30.3606 37.548 30.3468 37.5697C30.2662 37.6571 30.1969 37.7334 30.1302 37.8104C29.0425 37.5151 29.2469 37.6468 28.5931 36.928C28.3488 36.656 28.3081 36.5902 27.8725 36.6231C27.6006 36.6335 27.2473 36.753 26.9883 36.514C27.5192 35.8498 27.7781 36.4923 28.5532 36.0992C28.6892 36.0334 29.5457 35.37 29.6825 35.2167C29.4513 34.6936 29.6548 35.1284 29.3162 34.7915C28.5541 34.019 28.335 34.2138 27.3036 34.2138C26.8195 34.7707 26.4575 35.4592 25.9301 35.7614C25.6114 35.9442 25.2329 35.9857 24.7323 35.7718C24.9636 36.7089 25.562 35.9901 25.6157 37.1219C25.2216 37.0457 25.0173 36.8491 24.6094 36.9912C23.7382 37.3177 24.5141 37.2848 24.5817 37.4597C24.5817 37.4709 24.9896 37.5142 24.5817 37.6667C24.1322 37.8295 24.5132 37.5792 23.6438 37.0674C23.7659 36.85 23.8888 36.6214 24.011 36.3928C23.3043 36.611 22.4192 36.9591 21.5904 37.3618C20.6508 37.8303 19.7675 38.3647 19.2366 38.854C19.2227 39.6715 19.3726 39.1259 19.4548 40.0967C20.7192 40.1721 20.3113 40.5522 21.5766 40.9125C21.8199 40.9792 22.1343 41.0441 22.5153 41.1091C22.5153 41.7196 21.9706 42.1769 22.3508 42.8091C23.235 43.4283 23.2618 42.2202 23.4801 41.4477C26.4739 40.8224 25.0311 39.9426 25.8045 38.2954C25.9205 38.0494 26.0851 37.787 26.3224 37.5039C26.5527 37.5151 27.4915 37.6138 27.6959 37.6563C28.3766 37.7758 28.0094 37.9395 28.7438 38.266C28.7299 38.8548 28.4311 39.6169 29.3015 39.4758C29.9683 39.3571 29.8193 38.8332 30.6343 38.7024C31.0006 39.5633 30.9062 39.9339 31.069 40.9679C33.028 41.7309 32.1567 42.351 31.7757 43.779C32.0216 43.8985 32.2788 44.0077 32.5378 44.1159C32.5248 44.5299 32.5101 44.9334 32.4971 45.337C32.4564 45.337 30.4013 44.8893 30.2662 44.8468C30.5788 43.9531 31.1504 43.9427 31.5176 43.0282C30.7832 43.1581 30.8369 43.3867 30.3069 43.5504C29.8315 43.6924 29.4643 43.5937 28.9611 43.6595C28.7845 44.2467 28.9473 43.1468 29.0027 43.8977C29.0295 44.1817 29.1664 43.9098 28.975 44.2138C28.2943 43.8977 28.5264 43.1572 27.2611 43.8431C27.5469 43.9739 27.8318 44.0934 28.1315 44.2138C28.0916 45.0512 28.0232 44.4199 27.8466 44.9759C27.4109 46.4022 29.0295 45.5197 29.4513 45.4444C29.3422 46.1961 28.8797 46.1961 28.2267 46.4022C27.5071 46.6204 27.2888 46.9149 26.7173 47.0457C26.7173 46.1519 26.5822 46.9036 26.9753 46.2836C26.4038 46.3373 25.982 46.5988 25.4382 46.8283L25.3845 46.8491C24.6856 47.134 24.5799 47.1764 24.4994 48.0693C23.901 48.2538 23.2073 48.4625 22.7855 48.8981C22.3647 49.3008 21.942 49.7026 21.5333 50.0949C21.4934 50.1278 21.4649 50.1607 21.4397 50.1824C21.5896 51.3039 21.4397 51.3255 20.7582 51.7629C20.1875 52.1318 19.997 52.1214 19.4669 52.5899C17.767 54.115 18.5836 53.4057 18.6771 56.0315C18.3238 55.9232 17.9843 55.8029 17.6578 55.6833C17.3989 53.94 17.7522 54.5185 16.3519 54.115C14.8415 53.6794 15.0451 54.4198 14.4198 54.5506C13.7261 54.7021 13.3858 53.9184 12.3794 54.5722C11.8226 54.9524 11.2917 55.2036 11.1558 55.8782C10.9929 56.6957 10.6258 57.2933 10.6794 58.1983C10.7756 60.65 13.0056 60.7903 13.5771 59.6471C13.9573 58.885 13.8629 58.4711 15.1005 58.6668C15.2226 59.3206 15.0321 59.7995 14.8684 60.301C14.7601 60.5945 14.4605 61.128 14.6103 61.5324C15.4945 61.8918 15.5214 61.2155 16.6914 61.9126C16.7736 63.0774 16.1614 64.3842 17.0585 65.0597C17.7514 65.5716 17.7929 65.1143 18.4043 65.006C19.085 64.8865 18.9629 65.3109 19.5891 65.4096C19.9424 64.9731 19.7926 65.2468 20.0247 64.7116C20.4326 63.7876 20.5408 64.2223 21.5073 63.6568C21.6017 63.6022 21.6831 63.5468 21.7792 63.4818C21.8875 63.7105 22.0104 63.9287 22.1178 64.1461C22.8254 63.3078 22.9068 64.1244 23.7234 64.3531C24.075 64.4492 24.3245 64.4838 24.5176 64.4864C25.1108 64.4951 25.1714 64.2067 25.9811 64.4934C26.0773 64.5384 26.1994 64.5704 26.3085 64.6033C26.3215 64.6033 26.3622 64.625 26.3622 64.6475C26.3769 64.6588 26.4168 64.6908 26.4306 64.7029C26.5666 64.8545 26.5813 65.0078 26.6896 65.1706C27.2473 65.7041 27.805 66.2384 28.3488 66.7606C29.4227 67.1858 29.4227 66.3899 30.6473 67.5764C31.1643 68.0666 30.9322 68.057 31.218 68.6875C31.2595 68.7862 31.3409 68.8832 31.3946 69.0036C31.5038 69.298 31.6259 69.5804 31.7488 69.8635C32.3057 70.5936 33.0678 70.1363 33.8429 70.888C34.2915 71.3237 33.952 71.1929 34.9445 71.367C36.4816 71.6172 35.8841 71.4761 37.0532 72.3585C37.5018 72.685 37.6101 72.4997 38.0318 72.7829C38.6172 73.5996 38.4674 74.482 37.9781 75.2008C36.4678 77.4005 36.9848 77.0411 36.9164 78.7844C36.8618 79.7855 36.576 81.8553 35.6373 82.1056C32.2243 83.0651 34.2092 83.7294 33.312 85.4173C33.0539 85.897 32.8625 86.0165 32.6997 86.3985C32.0208 87.9876 32.4962 88.5219 30.4827 88.1625C30.6741 88.4994 30.5511 88.2708 30.7417 88.5756C31.3401 89.5014 31.4353 90.1994 30.2108 90.4263C29.1906 90.6229 29.6262 90.4263 29.531 91.5591C29.1361 91.7227 28.9594 91.5591 28.7013 91.8206L28.7974 91.9999L28.7957 91.999ZM19.8315 34.6191C20.0948 34.5845 20.0939 34.4702 20.7833 34.303C20.7287 34.0744 20.6872 34.0744 20.6335 33.9878L20.6118 33.9445C20.3494 34.1662 20.0888 34.3922 19.8315 34.62V34.6191ZM56.1879 47.2492L56.1611 47.2301C56.0658 47.1652 55.9714 47.1002 55.89 47.024C55.2916 46.4897 55.1677 46.0116 54.5026 46.1311C54.4879 46.6326 54.5572 46.6534 54.8014 46.9807C55.7263 48.1351 55.4405 47.7437 56.1611 48.168L56.1879 48.1836C56.3585 48.2815 56.556 48.4183 56.827 48.6149C55.9021 49.4298 56.7595 49.5173 56.1879 49.7901L56.1611 49.8031C56.1056 49.8239 56.0528 49.8464 56.0121 49.868C55.8207 49.3882 56.2425 49.6177 55.7532 48.9206C55.4812 48.5612 55.2232 48.4521 54.8014 48.2546C53.7397 47.7541 53.8765 47.3626 53.2235 46.7088C52.4883 46.7313 52.6528 46.9599 52.1358 47.2215C51.5105 47.5254 51.6058 47.1678 50.8706 47.2319C50.2721 48.2893 51.1286 47.4068 50.0409 48.278C48.7349 49.2904 49.8097 50.3469 47.7156 50.6639C47.5658 50.6855 47.5113 50.6639 47.3623 50.7176C46.9665 50.8587 47.1978 50.7392 46.9665 50.9679C47.1441 51.3827 46.899 51.316 47.6065 51.4147C48.8986 51.5879 49.0623 50.7938 50.0011 50.5972C50.4627 50.4993 53.3604 50.379 53.5639 50.4335C54.1891 51.1315 53.673 51.6217 53.673 52.2089C54.3545 52.5683 55.3193 52.6557 55.7142 53.0264C56.1628 53.4507 55.9454 53.3849 56.1628 53.4611L56.1896 53.4698C56.2719 53.4932 56.3906 53.5356 56.5984 53.6144C57.1423 53.7989 57.1146 53.908 57.6991 53.9513C58.23 52.176 57.6853 52.3613 60.2426 53.1771C62.9082 54.05 61.7114 53.2542 62.8407 53.3737C63.3993 53.4291 63.2494 53.6023 64.0245 53.5044C64.1735 53.1996 65.2751 50.4327 63.847 50.7817C63.4252 50.8899 63.7119 51.0423 63.1126 50.8899C62.4873 50.728 63.0858 50.6076 62.3929 50.7046C61.7114 50.8033 60.8965 51.4026 60.3656 49.3441C60.1621 48.6028 59.794 47.961 58.9514 49.0817C59.1688 49.4627 59.3186 49.4956 59.5628 49.8663C59.4952 49.9745 59.264 50.2473 59.1826 50.3348C58.721 50.7921 59.374 50.5747 58.6249 50.6717C58.217 50.3668 58.2993 49.9745 57.9044 49.4307C57.2107 48.4166 57.6593 48.886 57.3059 47.916C57.028 47.6718 56.5664 47.4891 56.1896 47.2492H56.1879ZM70.7145 76.5717C70.117 76.8766 70.0347 77.5746 69.5861 77.966C69.0968 78.4129 68.443 78.2068 68.2533 79.0338C68.0082 80.0679 68.6612 79.7526 67.9407 81.1027C67.6826 81.6033 67.6687 82.8556 68.0636 83.2271C69.2458 84.3694 69.8857 81.4847 70.1577 80.5805C70.3621 79.938 70.5526 79.2088 70.77 78.6086C70.9873 77.966 71.3 77.4005 70.7145 76.5717ZM68.7565 46.184C68.8517 47.5142 69.6398 48.0251 70.1984 48.6348C70.1308 49.267 69.9801 49.1033 69.994 49.9849C70.6608 50.4656 71.1493 50.7583 72.0213 50.5201C72.1435 49.4523 71.8031 49.506 71.4775 48.7768C71.5321 48.6894 71.681 48.5811 71.7078 48.5595C71.9538 48.233 71.8308 48.6894 71.9538 48.1342C71.3147 47.9281 70.2807 47.2734 70.2001 46.4143C70.5127 46.1641 70.4175 46.3156 70.6478 46.1641C71.151 45.8367 70.7708 46.3373 71.0696 45.7821C70.8115 45.2816 70.5257 45.1941 69.9005 45.4444C69.6285 45.5535 68.9071 46.0653 68.7573 46.1848L68.7565 46.184ZM63.1931 46.533C62.7723 45.9458 62.7982 45.6505 61.9824 45.6289C61.6568 45.9779 61.2758 46.5001 61.0991 47.0335C60.8272 47.8398 61.0177 47.2838 61.0446 48.1559C61.0307 48.1879 61.0446 48.233 61.0446 48.265C61.0307 48.7872 60.9077 48.1663 60.99 48.6461C61.63 48.5144 61.1407 48.5257 61.617 48.3733C62.0656 48.2208 63.4391 47.8069 63.834 47.9056C64.7719 48.123 65.5608 48.8643 66.6226 48.123C66.5672 47.1756 65.4249 46.8162 64.6359 46.4013C64.6775 45.531 64.9079 46.2169 64.8533 45.3777C64.5814 45.3664 64.4177 45.3231 64.1596 45.4323C63.5473 45.7042 63.8877 45.7813 63.8877 45.8791C63.9145 46.3468 64.5 45.7813 63.8747 46.3589C63.698 46.5105 63.4114 46.5105 63.194 46.533H63.1931ZM47.306 39.933C47.28 41.4581 47.81 40.9454 48.3123 41.698C48.082 42.3406 48.0404 41.84 47.7832 42.5034C47.552 43.0594 47.8369 42.5588 47.6871 43.527C48.082 43.5495 48.6665 43.4084 49.1835 43.3642C49.9188 43.2984 49.9041 43.2334 50.163 42.4817C49.7551 41.9812 49.3472 41.4798 48.9255 40.9792C48.3937 40.1721 48.9255 40.728 48.7627 40.0526C48.6406 39.8127 48.5306 39.5745 48.4223 39.3338C47.7148 39.5745 47.7832 39.5087 47.306 39.933Z" fill="#15BDB1"/>
<path fill-rule="evenodd" clip-rule="evenodd" d="M74.1842 37.2345L73.7729 36.8232L72.0772 35.1275L71.6658 34.7161C70.3278 35.2236 68.653 37.4172 67.9922 38.8011L68.1974 39.0073L69.8931 40.7029L70.0992 40.909C71.4831 40.2474 73.6767 38.5734 74.1842 37.2354V37.2345Z" fill="#FBB429"/>
<path fill-rule="evenodd" clip-rule="evenodd" d="M74.1854 37.2345L73.774 36.8232L72.0784 35.1275L71.667 34.7161C71.3578 34.8339 71.0322 35.0409 70.7031 35.3068L73.5948 38.1984C73.8606 37.8702 74.0676 37.5437 74.1854 37.2354V37.2345Z" fill="white"/>
<path fill-rule="evenodd" clip-rule="evenodd" d="M77.0241 45.298L76.6127 44.8867L74.917 43.191L74.5057 42.7796C73.1677 43.2871 71.4928 45.4807 70.832 46.8646L71.0381 47.0708L72.7338 48.7664L72.9399 48.9725C74.3238 48.3109 76.5174 46.6369 77.0249 45.298H77.0241Z" fill="#FBB429"/>
<path fill-rule="evenodd" clip-rule="evenodd" d="M77.0252 45.298L76.6139 44.8875L74.9182 43.191L74.5068 42.7805C74.1977 42.8974 73.8721 43.1044 73.543 43.3711L76.4346 46.2628C76.7005 45.9346 76.9083 45.6081 77.0252 45.2989V45.298Z" fill="white"/>
<path fill-rule="evenodd" clip-rule="evenodd" d="M53.8737 16.9238L54.2851 17.3351L55.9808 19.0308L56.3921 19.4421C55.8846 20.7801 53.691 22.455 52.3071 23.1167L52.101 22.9105L50.4053 21.2149L50.1992 21.0088C50.8609 19.6257 52.5349 17.4312 53.8729 16.9238H53.8737Z" fill="#FBB429"/>
<path fill-rule="evenodd" clip-rule="evenodd" d="M53.874 16.9238L54.2854 17.3351L55.9811 19.0308L56.3924 19.4421C56.2755 19.7513 56.0685 20.0778 55.8018 20.406L52.9102 17.5144C53.2384 17.2476 53.5649 17.0407 53.874 16.9238Z" fill="white"/>
<path fill-rule="evenodd" clip-rule="evenodd" d="M45.8112 14.0849L46.2226 14.4963L47.9183 16.192L48.3296 16.6033C47.8221 17.9413 45.6285 19.6162 44.2446 20.277L44.0385 20.0709L42.3428 18.3752L42.1367 18.1691C42.7984 16.7861 44.4724 14.5916 45.8104 14.0841L45.8112 14.0849Z" fill="#FBB429"/>
<path fill-rule="evenodd" clip-rule="evenodd" d="M45.8115 14.0849L46.2229 14.4963L47.9194 16.192L48.3299 16.6033C48.213 16.9125 48.006 17.239 47.7402 17.5672L44.8477 14.6756C45.1759 14.4088 45.5024 14.2019 45.8115 14.0849Z" fill="white"/>
<path fill-rule="evenodd" clip-rule="evenodd" d="M39.787 52.3128L44.7623 59.3864L46.3488 57.4682L43.5334 50.03C43.8867 49.7251 43.2225 50.3296 44.6757 49.0219C46.1289 47.7142 52.514 41.8443 58.2973 37.1427L74.9535 60.6881L76.4725 59.1691L67.2658 29.8223C71.0287 26.7202 73.9402 24.246 74.7248 23.3496C77.1228 20.6095 79.2922 16.9549 77.5801 13.5298C74.1541 11.8168 70.5004 13.9871 67.7603 16.3842C66.8631 17.1688 64.3898 20.0804 61.2877 23.8433L31.9409 14.6366L30.4219 16.1556L53.9663 32.8118C49.2656 38.5959 43.3948 44.9802 42.088 46.4334C40.7795 47.8866 41.3848 47.2223 41.08 47.5757L33.6417 44.7602L31.7235 46.3468L38.7972 51.3221C38.029 52.6436 38.4663 53.0809 39.7879 52.3128H39.787Z" fill="white"/>
<path fill-rule="evenodd" clip-rule="evenodd" d="M39.7891 52.3128L44.7643 59.3864L45.1471 58.924L40.3243 51.9438L39.7899 52.3128H39.7891Z" fill="#C8CACC"/>
<path fill-rule="evenodd" clip-rule="evenodd" d="M32.1851 45.964L31.7227 46.3468L38.7963 51.3221L39.1652 50.7877L32.1842 45.964H32.1851Z" fill="#C8CACC"/>
<path fill-rule="evenodd" clip-rule="evenodd" d="M58.3008 37.1419L74.9569 60.6872L75.5424 60.1009L59.2846 36.3391L58.3008 37.1419Z" fill="#C8CACC"/>
<path fill-rule="evenodd" clip-rule="evenodd" d="M31.0073 15.5693L30.4219 16.1556L53.9663 32.8118L54.7691 31.828L31.0064 15.5702L31.0073 15.5693Z" fill="#C8CACC"/>
<path fill-rule="evenodd" clip-rule="evenodd" d="M76.1481 14.9596C75.8112 14.6227 75.4033 14.3854 74.9504 14.2443L74.6758 15.0107C74.9616 15.1813 75.2301 15.3892 75.4752 15.6334C75.7194 15.8785 75.9272 16.1469 76.0978 16.4319L76.8643 16.1573C76.7231 15.7053 76.4858 15.2974 76.1489 14.9596H76.1481ZM74.3381 14.1144C73.6392 14.0304 72.8728 14.1404 72.1133 14.4322C72.7974 14.3751 73.4851 14.4746 74.1164 14.7319L74.3381 14.1144ZM76.3767 16.9922C76.6348 17.6235 76.7335 18.3102 76.6763 18.9953C76.9691 18.2358 77.0782 17.4693 76.9942 16.7705L76.3767 16.9922Z" fill="#15BDB1"/>
<path fill-rule="evenodd" clip-rule="evenodd" d="M34.6605 56.9235L34.6666 56.9174L34.7671 56.8204L34.8666 56.7243L34.968 56.6264L35.0693 56.5286L35.1706 56.4307L35.2728 56.332L35.375 56.2333L35.4781 56.1345L35.582 56.0349L35.685 55.9353L35.789 55.8349L35.8929 55.7336L35.9977 55.6322L36.1025 55.53L36.2081 55.4279L36.3146 55.3257L36.4211 55.2226L36.5277 55.1196L36.6351 55.0156L36.7424 54.9108L36.8507 54.8061L36.9589 54.7013L37.0672 54.5956L37.1763 54.4891L37.2854 54.3826L37.3954 54.2752L37.5054 54.1678L37.6163 54.0595L37.7271 53.9504L37.838 53.8413L37.2188 53.2108L37.1079 53.3191L36.9979 53.4274L36.8879 53.5347L36.7779 53.643L36.6688 53.7495L36.5606 53.856L36.4523 53.9617L36.3441 54.0673L36.2367 54.1721L36.1293 54.2761L36.0219 54.38L35.9154 54.4839L35.8089 54.587L35.7024 54.69L35.5967 54.7922L35.491 54.8944L35.3863 54.9957L35.2815 55.0962L35.1775 55.1975L35.0736 55.298L34.9697 55.3975L34.8666 55.4971L34.7636 55.5959L34.6614 55.6946L34.5592 55.7925L34.457 55.8903L34.3557 55.9882L34.2552 56.0852L34.1548 56.183L34.0543 56.2792L34.0483 56.2852L34.6614 56.9217L34.6605 56.9235ZM84.1743 56.5589L84.0695 56.8325L83.9648 57.1027L83.86 57.3686L83.7552 57.6301L83.6495 57.8882L83.5439 58.142L83.4382 58.3922L83.3326 58.6382L83.2269 58.8807L83.1204 59.1188L83.0147 59.3544L82.9082 59.5856L82.8017 59.8125L82.6952 60.0359L82.69 60.0463L83.4841 60.4352L83.4919 60.4196L83.601 60.1901L83.7101 59.9571L83.8184 59.7207L83.9275 59.4808L84.0358 59.2375L84.144 58.9898L84.2523 58.7386L84.3597 58.4832L84.4671 58.2251L84.5753 57.9618L84.6818 57.6951L84.7892 57.4249L84.8957 57.1504L85.0023 56.8715L84.1761 56.558L84.1743 56.5589ZM81.4576 62.3525L81.4031 62.4426L81.2948 62.621L81.1866 62.796L81.0783 62.9683L80.9692 63.1363L80.8601 63.3008L80.751 63.4628L80.6418 63.6213L80.5327 63.7772L80.4236 63.9296L80.3145 64.0794L80.2045 64.2257L80.0954 64.3695L79.9854 64.5098L79.8754 64.6475L79.7646 64.7826L79.6546 64.9142L79.5446 65.0433L79.4346 65.1688L79.3238 65.2927L79.2138 65.4131L79.1029 65.5308L78.9921 65.646L78.8812 65.7586L78.8622 65.7777L79.4814 66.409L79.5082 66.3821L79.6269 66.2618L79.7446 66.1388L79.8624 66.0132L79.9802 65.885L80.0971 65.7543L80.214 65.6209L80.3301 65.4841L80.4461 65.3446L80.5622 65.2018L80.6782 65.0571L80.7934 64.909L80.9086 64.7584L81.0238 64.6051L81.1381 64.4483L81.2524 64.2881L81.3667 64.1253L81.4801 63.959L81.5945 63.7901L81.707 63.6178L81.8205 63.4429L81.9331 63.2645L82.0465 63.0826L82.1591 62.8973L82.2128 62.8063L81.455 62.3508L81.4576 62.3525ZM76.8729 67.3668L76.8703 67.3685L76.7569 67.437L76.6434 67.5036L76.53 67.5677L76.4165 67.6301L76.3022 67.6907L76.1888 67.7487L76.0745 67.8059L75.9601 67.8604L75.8458 67.9133L75.7315 67.9644L75.6163 68.0137L75.5011 68.0614L75.386 68.1072L75.2708 68.1523L75.1547 68.1947L75.0387 68.2363L74.9226 68.2761L74.8066 68.3142L74.6897 68.3515L74.5728 68.3861L74.455 68.4199L74.3381 68.4528L74.2203 68.4831L74.1025 68.5125L73.9839 68.5403L73.8652 68.5671L73.7466 68.5922L73.6271 68.6165L73.5076 68.639L73.3881 68.6606L73.2677 68.6814L73.1473 68.7005L73.0269 68.7187L72.9057 68.736L72.8988 68.7368L73.0113 69.6141L73.0261 69.6115L73.156 69.5933L73.285 69.5743L73.4132 69.5535L73.5422 69.5319L73.6712 69.5085L73.8003 69.4842L73.9285 69.4582L74.0566 69.4305L74.1839 69.4019L74.3121 69.3716L74.4403 69.3396L74.5684 69.3058L74.6966 69.2712L74.8231 69.2348L74.9504 69.1967L75.0768 69.1569L75.2032 69.1153L75.3305 69.072L75.457 69.027L75.5826 68.9802L75.709 68.9317L75.8346 68.8815L75.9601 68.8295L76.0857 68.775L76.2113 68.7187L76.336 68.6606L76.4607 68.6009L76.5854 68.5394L76.7101 68.4753L76.8348 68.4095L76.9587 68.3411L77.0825 68.2709L77.2063 68.199L77.3293 68.1246L77.3319 68.1228L76.8703 67.3694L76.8729 67.3668ZM70.312 68.8849H70.2972L70.1699 68.8841L70.0418 68.8823L69.9136 68.8806L69.7845 68.878L69.6555 68.8754L69.5265 68.8719L69.3966 68.8685L69.2667 68.8642L69.1359 68.8598L69.0051 68.8555L68.8744 68.8512L68.7436 68.846L68.612 68.8408L68.4795 68.8364L68.347 68.8312L68.2145 68.826L68.082 68.82L67.9495 68.8148L67.8161 68.8096L67.6827 68.8044L67.5485 68.7992L67.4143 68.794L67.28 68.7888L67.1449 68.7836L67.0098 68.7784L66.8739 68.7732L66.7379 68.7689L66.6019 68.7646L66.4651 68.7602L66.3283 68.7559L66.1914 68.7524L66.0537 68.749L65.916 68.7464L65.9022 68.7455L65.8866 69.6297H65.8987L66.0338 69.6323L66.1689 69.6358L66.304 69.6392L66.4383 69.6436L66.5733 69.6479L66.7085 69.6522L66.8427 69.6566L66.9769 69.6618L67.1111 69.667L67.2454 69.6721L67.3787 69.6773L67.5121 69.6825L67.6455 69.6877L67.7789 69.6929L67.9122 69.6981L68.0456 69.7033L68.179 69.7085L68.3123 69.7137L68.4457 69.7189L68.5782 69.7241L68.7107 69.7293L68.8441 69.7345L68.9757 69.7388L69.1082 69.7432L69.2407 69.7475L69.3732 69.751L69.5057 69.7544L69.6382 69.7579L69.7698 69.7605L69.9015 69.7631L70.0331 69.7648L70.1647 69.7665L70.2964 69.7674H70.3111L70.3146 68.8832L70.312 68.8849ZM63.2071 68.8061L63.0928 68.8148L62.9491 68.8269L62.8036 68.8399L62.6598 68.8538L62.5143 68.8685L62.3688 68.8849L62.2233 68.9023L62.0778 68.9204L61.9315 68.9395L61.7851 68.9611L61.6379 68.9837L61.4907 69.0079L61.3435 69.0322L61.1962 69.059L61.0481 69.0867L60.9001 69.1153L60.7511 69.1456L60.6021 69.1776L60.4532 69.2114L60.3034 69.2469L60.1535 69.2842L60.0029 69.3223L59.853 69.3612L59.7024 69.4028L59.5517 69.4461L59.401 69.4911L59.2494 69.5379L59.0979 69.5864L58.9454 69.6366L58.793 69.6895L58.7731 69.6964L59.0728 70.5286L59.0849 70.5243L59.2286 70.4749L59.3715 70.4282L59.5144 70.3823L59.6573 70.3381L59.8002 70.2965L59.9431 70.255L60.0851 70.216L60.2272 70.1779L60.3692 70.1415L60.5112 70.1069L60.6524 70.0731L60.7935 70.0419L60.9347 70.0116L61.075 69.983L61.2153 69.9553L61.3564 69.9294L61.4967 69.9051L61.637 69.8809L61.7773 69.8583L61.9168 69.8376L62.0571 69.8176L62.1965 69.7986L62.3359 69.7813L62.4753 69.7648L62.6139 69.7492L62.7525 69.7345L62.8919 69.7206L63.0296 69.7085L63.1682 69.6973L63.2825 69.6886L63.2132 68.807L63.2071 68.8061ZM56.2876 70.8179L56.1699 70.8837L56.0131 70.9738L55.8564 71.0664L55.6996 71.1608L55.542 71.2587L55.3852 71.3583L55.2276 71.4605L55.0709 71.5644L54.9133 71.6718L54.7556 71.7809L54.5972 71.8935L54.4387 72.0087L54.2811 72.1264L54.1226 72.246L53.9641 72.3689L53.8056 72.4945L53.6463 72.6227L53.4869 72.7534L53.3276 72.8868L53.1674 73.0228L53.0072 73.1631L52.8478 73.3051L52.6876 73.4497L52.6478 73.487L53.2505 74.1339L53.2843 74.1036L53.4384 73.9633L53.5926 73.8264L53.7459 73.6931L53.8992 73.5623L54.0516 73.4341L54.2049 73.3086L54.3564 73.1856L54.5088 73.0661L54.6604 72.9492L54.8119 72.834L54.9635 72.7214L55.1142 72.6123L55.2649 72.5058L55.4156 72.401L55.5654 72.2997L55.7152 72.2001L55.865 72.1031L56.0148 72.0087L56.1638 71.9169L56.3128 71.8268L56.4608 71.7393L56.6089 71.6536L56.7267 71.5878L56.2894 70.8188L56.2876 70.8179ZM50.7642 75.4113L50.7486 75.4277L50.5858 75.613L50.4273 75.7949L50.2688 75.9742L50.1103 76.1517L49.9527 76.3266L49.7951 76.4998L49.6375 76.6705L49.4807 76.8385L49.324 77.0047L49.1681 77.1693L49.0122 77.3312L48.8563 77.4914L48.7013 77.6491L48.5463 77.8049L48.3913 77.9582L48.2371 78.1098L48.083 78.2596L47.9297 78.4068L47.7764 78.5523L47.747 78.5792L48.3488 79.2261L48.3817 79.1958L48.5394 79.0468L48.697 78.8961L48.8546 78.7437L49.0122 78.5887L49.1707 78.4311L49.3292 78.2717L49.4876 78.1098L49.647 77.947L49.8063 77.7816L49.9666 77.6144L50.1259 77.4447L50.2861 77.2723L50.4463 77.0983L50.6074 76.9225L50.7685 76.7441L50.9296 76.5631L51.0915 76.3803L51.2535 76.1959L51.4111 76.0157L51.4267 75.9993L50.765 75.413L50.7642 75.4113ZM45.7681 80.2895L45.6616 80.3736L45.5144 80.4887L45.3663 80.6022L45.219 80.7139L45.0718 80.8239L44.9255 80.9321L44.78 81.0378L44.6345 81.1417L44.489 81.2439L44.3444 81.3444L44.1997 81.4431L44.0551 81.5401L43.9114 81.6353L43.7685 81.7289L43.6256 81.8198L43.4827 81.909L43.3406 81.9973L43.1986 82.0831L43.0566 82.1671L42.9163 82.2493L42.776 82.3299L42.6357 82.4087L42.4963 82.4866L42.3568 82.562L42.2183 82.6356L42.1516 82.6702L42.5569 83.4566L42.6305 83.4185L42.776 83.3405L42.9215 83.2617L43.067 83.1812L43.2133 83.098L43.3597 83.014L43.5061 82.9283L43.6533 82.84L43.8005 82.7508L43.9486 82.6598L44.0967 82.5663L44.2456 82.4719L44.3946 82.3749L44.5435 82.2762L44.6934 82.1757L44.8432 82.0735L44.9939 81.9696L45.1446 81.864L45.2952 81.7557L45.4468 81.6457L45.5984 81.534L45.7499 81.4206L45.9023 81.3054L46.0556 81.1876L46.208 81.0681L46.3137 80.9841L45.7672 80.2887L45.7681 80.2895ZM39.7822 83.6852L39.6661 83.7233L39.5362 83.7649L39.4063 83.8047L39.2773 83.8437L39.1491 83.8809L39.0209 83.9164L38.8936 83.9502L38.7663 83.9831L38.6399 84.0143L38.5143 84.0437L38.3887 84.0715L38.2632 84.0983L38.1385 84.1234L38.0146 84.1477L37.8908 84.1702L37.7669 84.1918L37.6448 84.2118L37.5227 84.2299L37.4006 84.2473L37.2794 84.2628L37.159 84.2776L37.0386 84.2906L36.9191 84.3027L36.7996 84.3131L36.6801 84.3217L36.5623 84.3295L36.4445 84.3356L36.3268 84.3408L36.2098 84.3451L36.0938 84.3477L35.9786 84.3494H35.8634L35.7483 84.3486L35.6348 84.3468L35.5906 84.3451L35.5586 85.2285L35.6132 85.2302L35.737 85.2328L35.8608 85.2337H35.9855L36.1111 85.2319L36.2367 85.2285L36.3623 85.2241L36.4887 85.2189L36.6169 85.2111L36.7442 85.2025L36.8723 85.193L37.0005 85.1817L37.1296 85.1696L37.2595 85.1548L37.3894 85.1393L37.5201 85.1219L37.65 85.1038L37.7817 85.0847L37.9133 85.063L38.0458 85.0397L38.1783 85.0163L38.3117 84.9903L38.445 84.9635L38.5784 84.9349L38.7126 84.9046L38.8477 84.8725L38.9828 84.8396L39.1179 84.805L39.2539 84.7686L39.3907 84.7305L39.5276 84.6907L39.6644 84.65L39.8021 84.6075L39.9398 84.5634L40.0558 84.5252L39.783 83.6843L39.7822 83.6852ZM33.0826 83.9597L33.0393 83.9476L32.938 83.9182L32.8376 83.887L32.7362 83.8549L32.6358 83.822L32.5353 83.7874L32.4357 83.7528L32.3379 83.7173L32.2391 83.68L32.1413 83.6419L32.0443 83.6029L31.9473 83.5631L31.8512 83.5224L31.7559 83.4808L31.6606 83.4384L31.5662 83.3942L31.4727 83.3501L31.3792 83.305L31.2857 83.2591L31.1939 83.2124L31.1029 83.1647L31.0111 83.1154L30.9202 83.066L30.8301 83.0149L30.7409 82.9638L30.6517 82.9119L30.5625 82.8582L30.4751 82.8045L30.3876 82.7499L30.301 82.6945L30.2144 82.6382L30.1287 82.581L30.0429 82.5239L29.9589 82.465L29.8749 82.4061L29.7909 82.3455L29.7078 82.2849L29.6255 82.2234L29.5441 82.161L29.4627 82.0987L29.3821 82.0354L29.3458 82.006L28.7889 82.6928L28.8305 82.7265L28.9171 82.7949L29.0046 82.8625L29.092 82.9292L29.1812 82.9959L29.2704 83.0617L29.3605 83.1258L29.4514 83.1898L29.5432 83.2531L29.635 83.3146L29.7277 83.376L29.8212 83.4367L29.9147 83.4964L30.0091 83.5562L30.1044 83.6142L30.1997 83.6714L30.2967 83.7276L30.3937 83.7831L30.4915 83.8376L30.5902 83.8913L30.689 83.9442L30.7886 83.9961L30.889 84.0472L30.9895 84.0966L31.0908 84.1459L31.193 84.1944L31.2952 84.2412L31.3982 84.2871L31.5022 84.3321L31.6069 84.3763L31.7109 84.4196L31.8165 84.462L31.923 84.5036L32.0296 84.5434L32.1369 84.5833L32.2452 84.6214L32.3535 84.6586L32.4626 84.6941L32.5726 84.7288L32.6825 84.7625L32.7934 84.7954L32.8367 84.8076L33.0826 83.958V83.9597ZM27.5332 80.2047L27.4968 80.1596L27.4327 80.08L27.3686 80.0003L27.3063 79.9198L27.2439 79.8384L27.1825 79.7569L27.1218 79.6755L27.0612 79.5933L27.0015 79.5101L26.9426 79.427L26.8837 79.3439L26.8265 79.2598L26.7694 79.1758L26.7131 79.091L26.6576 79.0061L26.6022 78.9204L26.5485 78.8346L26.4948 78.748L26.442 78.6614L26.39 78.5748L26.3381 78.4874L26.287 78.3999L26.2368 78.3116L26.1874 78.2241L26.1389 78.1358L26.0904 78.0466L26.0428 77.9582L25.996 77.869L25.9492 77.7798L25.9042 77.6898L25.8592 77.6006L25.815 77.5105L25.7717 77.4196L25.7293 77.3286L25.6877 77.2377L25.647 77.1468L25.6063 77.0558L25.5665 76.9649L25.5275 76.8731L25.4894 76.7822L25.4521 76.6904L25.4149 76.5986L25.3846 76.5215L24.561 76.8411L24.5939 76.9251L24.6329 77.0229L24.6727 77.1208L24.7134 77.2186L24.755 77.3156L24.7966 77.4126L24.8399 77.5105L24.884 77.6075L24.9291 77.7045L24.9741 77.8006L25.02 77.8967L25.0668 77.9929L25.1144 78.089L25.1629 78.1843L25.2114 78.2795L25.2608 78.3739L25.3118 78.4683L25.3629 78.5618L25.4149 78.6562L25.4677 78.7498L25.5214 78.8433L25.576 78.936L25.6305 79.0286L25.6868 79.1213L25.7431 79.2131L25.7994 79.304L25.8574 79.3958L25.9155 79.4867L25.9744 79.5777L26.0341 79.6677L26.0947 79.7569L26.1562 79.8461L26.2186 79.9353L26.2809 80.0237L26.345 80.112L26.4091 80.1995L26.474 80.2869L26.5399 80.3736L26.6057 80.4602L26.6724 80.5459L26.7399 80.6316L26.8083 80.7174L26.8456 80.7624L27.5315 80.2047H27.5332ZM24.684 74.0542C24.4285 72.6513 24.3869 71.237 24.6952 69.8384L23.8318 69.6479C23.4941 71.1401 23.5408 72.7162 23.8145 74.2136L24.684 74.0533V74.0542ZM25.5335 67.4387C26.1337 66.1648 27.0266 64.9394 27.9151 63.8525L27.2335 63.2896C26.3052 64.4111 25.3603 65.7335 24.7385 67.0524L25.5335 67.4387ZM29.6541 61.8884L29.6601 61.8823L29.7355 61.8026L29.8108 61.723L29.887 61.6433L29.9641 61.5627L30.0412 61.4822L30.1183 61.4017L30.1962 61.3211L30.275 61.2397L30.3538 61.1583L30.4326 61.0769L30.5123 60.9955L30.5928 60.9132L30.6734 60.831L30.7548 60.7487L30.8362 60.6664L30.9185 60.5833L31.0016 60.4993L31.0847 60.4153L31.1679 60.3321L31.2519 60.2481L31.3359 60.1641L31.4216 60.0792L31.5074 59.9944L31.5931 59.9095L31.6797 59.8238L31.7663 59.738L31.8538 59.6523L31.9412 59.5657L32.0296 59.4791L32.1179 59.3925L32.2071 59.305L32.2963 59.2176L32.3864 59.1301L32.4764 59.0418L32.5674 58.9534L32.6583 58.8651L32.7501 58.7759L32.7562 58.7707L32.1395 58.1368L32.1335 58.1428L32.0417 58.232L31.9499 58.3212L31.859 58.4096L31.768 58.4988L31.678 58.5862L31.5879 58.6746L31.4987 58.762L31.4095 58.8495L31.3212 58.937L31.2328 59.0236L31.1445 59.1102L31.057 59.1968L30.9704 59.2825L30.8838 59.3691L30.7981 59.4548L30.7123 59.5397L30.6266 59.6255L30.5426 59.7103L30.4586 59.7943L30.3746 59.8792L30.2915 59.9632L30.2083 60.0472L30.1261 60.1312L30.0438 60.2143L29.9624 60.2975L29.881 60.3806L29.7996 60.4638L29.719 60.546L29.6393 60.6283L29.5597 60.7106L29.4809 60.7928L29.4021 60.8751L29.3241 60.9565L29.247 61.0371L29.1691 61.1185L29.092 61.1999L29.0158 61.2804L29.0098 61.2873L29.6541 61.8927V61.8884Z" fill="white"/>
</svg>
