<svg width="36" height="34" viewBox="0 0 36 34" fill="none" xmlns="http://www.w3.org/2000/svg">
<path fill-rule="evenodd" clip-rule="evenodd" d="M16.9521 1.23898C17.0897 0.949386 17.3066 0.704746 17.5776 0.533454C17.8487 0.362162 18.1627 0.27124 18.4833 0.27124C18.804 0.27124 19.118 0.362162 19.3891 0.533454C19.6601 0.704746 19.877 0.949386 20.0146 1.23898L24.3896 10.4374L34.4958 11.7718C34.8126 11.8146 35.1109 11.946 35.3562 12.151C35.6015 12.356 35.7838 12.6262 35.8821 12.9303C35.9805 13.2345 35.9908 13.5603 35.912 13.8701C35.8331 14.1799 35.6683 14.461 35.4365 14.6812L28.0646 21.703L29.924 31.7218C29.9806 32.0357 29.9475 32.3592 29.8285 32.6552C29.7095 32.9511 29.5094 33.2075 29.2513 33.3948C28.9931 33.5822 28.6873 33.6929 28.3691 33.7142C28.0508 33.7356 27.733 33.6667 27.4521 33.5155L18.4833 28.6593L9.52554 33.5155C9.24466 33.6667 8.92683 33.7356 8.60857 33.7142C8.29031 33.6929 7.98453 33.5822 7.72636 33.3948C7.46819 33.2075 7.26812 32.9511 7.14912 32.6552C7.03013 32.3592 6.99704 32.0357 7.05366 31.7218L8.91304 21.703L1.50835 14.6812C1.27655 14.461 1.11171 14.1799 1.03286 13.8701C0.954003 13.5603 0.964342 13.2345 1.06268 12.9303C1.16102 12.6262 1.34335 12.356 1.58864 12.151C1.83393 11.946 2.13218 11.8146 2.44897 11.7718L12.5662 10.4374L16.9412 1.23898H16.9521Z" fill="#E5E5E5"/>
</svg>
